<?xml version="1.0" encoding="UTF-8" standalone="no"?>
<!-- Created with Inkscape (http://www.inkscape.org/) -->

<svg
   width="263.91119mm"
   height="183.03726mm"
   viewBox="0 0 263.91119 183.03726"
   version="1.1"
   id="svg23520"
   sodipodi:docname="setup.svg"
   inkscape:version="1.2.2 (b0a8486541, 2022-12-01)"
   xml:space="preserve"
   inkscape:export-filename="setup.pdf"
   inkscape:export-xdpi="58.04"
   inkscape:export-ydpi="58.04"
   xmlns:inkscape="http://www.inkscape.org/namespaces/inkscape"
   xmlns:sodipodi="http://sodipodi.sourceforge.net/DTD/sodipodi-0.dtd"
   xmlns="http://www.w3.org/2000/svg"
   xmlns:svg="http://www.w3.org/2000/svg"><sodipodi:namedview
     id="namedview23522"
     pagecolor="#ffffff"
     bordercolor="#666666"
     borderopacity="1.0"
     inkscape:showpageshadow="2"
     inkscape:pageopacity="0.0"
     inkscape:pagecheckerboard="0"
     inkscape:deskcolor="#d1d1d1"
     inkscape:document-units="mm"
     showgrid="false"
     inkscape:zoom="1.1920195"
     inkscape:cx="493.28053"
     inkscape:cy="404.35581"
     inkscape:window-width="2093"
     inkscape:window-height="1133"
     inkscape:window-x="0"
     inkscape:window-y="0"
     inkscape:window-maximized="1"
     inkscape:current-layer="g167939" /><defs
     id="defs23517"><rect
       x="738.02084"
       y="565.19496"
       width="73.609206"
       height="40.956864"
       id="rect25391" /><rect
       x="177.68084"
       y="563.79963"
       width="122.71957"
       height="89.606361"
       id="rect25373" /><rect
       x="291.65042"
       y="-52.501916"
       width="581.33467"
       height="170.25258"
       id="rect25305" /><rect
       x="377.34176"
       y="0"
       width="412.45694"
       height="43.609216"
       id="rect25283" /><inkscape:path-effect
       effect="bspline"
       id="path-effect168363"
       is_visible="true"
       lpeversion="1"
       weight="33.333333"
       steps="2"
       helper_size="0"
       apply_no_weight="true"
       apply_with_weight="true"
       only_selected="false" /><marker
       style="overflow:visible"
       id="marker73435"
       refX="0"
       refY="0"
       orient="auto-start-reverse"
       inkscape:stockid="Arrow2"
       markerWidth="7.6999998"
       markerHeight="5.5999999"
       viewBox="0 0 7.7 5.6"
       inkscape:isstock="true"
       inkscape:collect="always"
       preserveAspectRatio="xMidYMid"><path
         transform="scale(0.7)"
         d="M -2,-4 9,0 -2,4 c 2,-2.33 2,-5.66 0,-8 z"
         style="fill:context-stroke;fill-rule:evenodd;stroke:none"
         id="path73433" /></marker><inkscape:path-effect
       effect="bspline"
       id="path-effect168367"
       is_visible="true"
       lpeversion="1"
       weight="33.333333"
       steps="2"
       helper_size="0"
       apply_no_weight="true"
       apply_with_weight="true"
       only_selected="false" /><inkscape:path-effect
       effect="bspline"
       id="path-effect168371"
       is_visible="true"
       lpeversion="1"
       weight="33.333333"
       steps="2"
       helper_size="0"
       apply_no_weight="true"
       apply_with_weight="true"
       only_selected="false" /><marker
       style="overflow:visible"
       id="marker73603"
       refX="0"
       refY="0"
       orient="auto-start-reverse"
       inkscape:stockid="Arrow2"
       markerWidth="7.6999998"
       markerHeight="5.5999999"
       viewBox="0 0 7.7 5.6"
       inkscape:isstock="true"
       inkscape:collect="always"
       preserveAspectRatio="xMidYMid"><path
         transform="scale(0.7)"
         d="M -2,-4 9,0 -2,4 c 2,-2.33 2,-5.66 0,-8 z"
         style="fill:context-stroke;fill-rule:evenodd;stroke:none"
         id="path73601" /></marker><inkscape:path-effect
       effect="bspline"
       id="path-effect168375"
       is_visible="true"
       lpeversion="1"
       weight="33.333333"
       steps="2"
       helper_size="0"
       apply_no_weight="true"
       apply_with_weight="true"
       only_selected="false" /><inkscape:path-effect
       effect="bspline"
       id="path-effect168379"
       is_visible="true"
       lpeversion="1"
       weight="33.333333"
       steps="2"
       helper_size="0"
       apply_no_weight="true"
       apply_with_weight="true"
       only_selected="false" /><inkscape:path-effect
       effect="bspline"
       id="path-effect168383"
       is_visible="true"
       lpeversion="1"
       weight="33.333333"
       steps="2"
       helper_size="0"
       apply_no_weight="true"
       apply_with_weight="true"
       only_selected="false" /><inkscape:path-effect
       effect="bspline"
       id="path-effect168387"
       is_visible="true"
       lpeversion="1"
       weight="33.333333"
       steps="2"
       helper_size="0"
       apply_no_weight="true"
       apply_with_weight="true"
       only_selected="false" /></defs><g
     inkscape:label="Layer 1"
     inkscape:groupmode="layer"
     id="layer1"
     transform="translate(9.25432, -63.2996)"><g
       id="g167939"
       transform="translate(-28.545086,5.5332381)"
       style="display:inline"><rect
         style="display:inline;fill:#ff5555;fill-opacity:0.8;fill-rule:nonzero;stroke:#ff5555;stroke-width:0.333697;stroke-linejoin:miter;stroke-miterlimit:4;stroke-dasharray:none;stroke-dashoffset:0;stroke-opacity:0.977064"
         id="rect167485"
         width="53.70396"
         height="53.704002"
         x="52.391747"
         y="134.49303" /><rect
         y="134.49303"
         x="196.39726"
         height="53.704002"
         width="53.70396"
         id="rect167487"
         style="display:inline;fill:#ff5555;fill-opacity:0.8;fill-rule:nonzero;stroke:#ff5555;stroke-width:0.333697;stroke-linejoin:miter;stroke-miterlimit:4;stroke-dasharray:none;stroke-dashoffset:0;stroke-opacity:1" /><path
         id="path167489"
         style="display:inline;fill:none;fill-opacity:1;stroke:#4b7eff;stroke-width:0.996;stroke-linejoin:bevel;stroke-miterlimit:4;stroke-dasharray:none;stroke-dashoffset:0;stroke-opacity:1"
         d="M 19.788767,82.384645 V 240.30567 H 128.95935 l 0.0484,-51.94179 -76.616033,-0.16686 v -53.52501 l 76.492243,0 0.0754,-52.287415 z"
         sodipodi:nodetypes="ccccccccc" /><path
         id="path167491"
         style="display:inline;fill:none;fill-opacity:1;stroke:#ff79c6;stroke-width:0.996;stroke-linejoin:bevel;stroke-miterlimit:4;stroke-dasharray:none;stroke-dashoffset:0;stroke-opacity:1"
         d="m 173.53337,82.384645 v 52.287365 l 76.56786,-0.17898 v 53.70399 h -76.56786 v 52.10865 H 282.70396 V 82.384645 Z"
         sodipodi:nodetypes="ccccccccc" /><rect
         style="display:inline;fill:none;fill-opacity:1;stroke:#50fa7b;stroke-width:1.08;stroke-linejoin:bevel;stroke-miterlimit:4;stroke-dasharray:6.47999685,6.47999685;stroke-dashoffset:0;stroke-opacity:1"
         id="rect167493"
         width="197.53049"
         height="53.525005"
         x="52.391747"
         y="134.67201" /><path
         style="display:inline;fill:none;stroke:#44475a;stroke-width:0.596;stroke-linecap:butt;stroke-linejoin:miter;stroke-dasharray:none;stroke-opacity:1"
         d="m 79.243723,82.286681 c 24.001087,-6.991692 48.001927,-13.983315 72.003137,-13.983185 24.00122,1.29e-4 48.00168,6.991631 72.00233,13.983185"
         id="path167495"
         inkscape:path-effect="#path-effect168363"
         inkscape:original-d="M 79.243723,82.286681 C 103.24488,75.295244 127.24572,68.30361 151.2464,61.311771 c 24.00164,6.99198 48.00211,13.983473 72.00279,20.97491" /><g
         id="g167591"
         transform="matrix(1.2784001,0,0,1.2784001,-94.914593,-10.007563)"
         style="display:inline;fill:#4b7eff;fill-opacity:1"><g
           style="fill:#4b7eff;fill-opacity:1"
           id="g167589"><g
             id="g167571"
             transform="translate(91.925003,81.962997)"
             style="fill:#4b7eff;fill-opacity:1"><path
               style="fill:#4b7eff;fill-opacity:1;stroke:none"
               d="m 3.96875,-6.9375 c -0.046875,-0.125 -0.078125,-0.203125 -0.234375,-0.203125 -0.15625,0 -0.1875,0.0625 -0.234375,0.203125 L 1.4375,-0.984375 C 1.25,-0.46875 0.859375,-0.3125 0.3125,-0.3125 V 0 c 0.234375,-0.015625 0.671875,-0.03125 1.015625,-0.03125 0.3125,0 0.828125,0.015625 1.15625,0.03125 v -0.3125 c -0.5,0 -0.75,-0.25 -0.75,-0.5 0,-0.03125 0.015625,-0.140625 0.015625,-0.15625 L 2.21875,-2.265625 H 4.671875 L 5.203125,-0.75 c 0.015625,0.046875 0.03125,0.109375 0.03125,0.140625 0,0.296875 -0.5625,0.296875 -0.828125,0.296875 V 0 c 0.359375,-0.03125 1.0625,-0.03125 1.4375,-0.03125 0.421875,0 0.890625,0.015625 1.296875,0.03125 V -0.3125 H 6.96875 C 6.375,-0.3125 6.234375,-0.375 6.125,-0.703125 Z m -0.53125,1.109375 1.125,3.25 H 2.328125 Z m 0,0"
               id="path167569" /></g><g
             id="g167575"
             transform="translate(99.39695,81.962997)"
             style="fill:#4b7eff;fill-opacity:1"><path
               style="fill:#4b7eff;fill-opacity:1;stroke:none"
               d="M 1.765625,-6.921875 0.328125,-6.8125 V -6.5 c 0.703125,0 0.78125,0.0625 0.78125,0.5625 V -0.75 c 0,0.4375 -0.109375,0.4375 -0.78125,0.4375 V 0 C 0.65625,-0.015625 1.1875,-0.03125 1.4375,-0.03125 c 0.25,0 0.734375,0.015625 1.109375,0.03125 v -0.3125 c -0.671875,0 -0.78125,0 -0.78125,-0.4375 z m 0,0"
               id="path167573" /></g><g
             id="g167579"
             transform="translate(102.16456,81.962997)"
             style="fill:#4b7eff;fill-opacity:1"><path
               style="fill:#4b7eff;fill-opacity:1;stroke:none"
               d="M 1.765625,-4.40625 0.375,-4.296875 v 0.3125 c 0.640625,0 0.734375,0.0625 0.734375,0.546875 V -0.75 c 0,0.4375 -0.109375,0.4375 -0.78125,0.4375 V 0 C 0.640625,-0.015625 1.1875,-0.03125 1.421875,-0.03125 1.78125,-0.03125 2.125,-0.015625 2.46875,0 v -0.3125 c -0.671875,0 -0.703125,-0.046875 -0.703125,-0.4375 z m 0.03125,-1.734375 c 0,-0.3125 -0.234375,-0.53125 -0.515625,-0.53125 -0.3125,0 -0.53125,0.265625 -0.53125,0.53125 0,0.265625 0.21875,0.53125 0.53125,0.53125 0.28125,0 0.515625,-0.21875 0.515625,-0.53125 z m 0,0"
               id="path167577" /></g><g
             id="g167583"
             transform="translate(104.93217,81.962997)"
             style="fill:#4b7eff;fill-opacity:1"><path
               style="fill:#4b7eff;fill-opacity:1;stroke:none"
               d="m 1.171875,-2.171875 c 0,-1.625 0.8125,-2.046875 1.34375,-2.046875 0.09375,0 0.71875,0.015625 1.0625,0.375 -0.40625,0.03125 -0.46875,0.328125 -0.46875,0.453125 0,0.265625 0.1875,0.453125 0.453125,0.453125 0.265625,0 0.46875,-0.15625 0.46875,-0.46875 0,-0.671875 -0.765625,-1.0625 -1.53125,-1.0625 -1.25,0 -2.15625,1.078125 -2.15625,2.3125 0,1.28125 0.984375,2.265625 2.140625,2.265625 1.328125,0 1.65625,-1.203125 1.65625,-1.296875 0,-0.09375 -0.109375,-0.09375 -0.140625,-0.09375 -0.078125,0 -0.109375,0.03125 -0.125,0.09375 -0.28125,0.921875 -0.9375,1.046875 -1.296875,1.046875 -0.53125,0 -1.40625,-0.421875 -1.40625,-2.03125 z m 0,0"
               id="path167581" /></g><g
             id="g167587"
             transform="translate(109.35955,81.962997)"
             style="fill:#4b7eff;fill-opacity:1"><path
               style="fill:#4b7eff;fill-opacity:1;stroke:none"
               d="M 1.109375,-2.515625 C 1.171875,-4 2.015625,-4.25 2.359375,-4.25 c 1.015625,0 1.125,1.34375 1.125,1.734375 z m 0,0.21875 h 2.78125 c 0.21875,0 0.25,0 0.25,-0.21875 0,-0.984375 -0.546875,-1.953125 -1.78125,-1.953125 -1.15625,0 -2.078125,1.03125 -2.078125,2.28125 0,1.328125 1.046875,2.296875 2.1875,2.296875 C 3.6875,0.109375 4.140625,-1 4.140625,-1.1875 4.140625,-1.28125 4.0625,-1.3125 4,-1.3125 c -0.078125,0 -0.109375,0.0625 -0.125,0.140625 -0.34375,1.03125 -1.25,1.03125 -1.34375,1.03125 -0.5,0 -0.890625,-0.296875 -1.125,-0.671875 -0.296875,-0.46875 -0.296875,-1.125 -0.296875,-1.484375 z m 0,0"
               id="path167585" /></g></g></g><g
         inkscape:label=""
         transform="matrix(1.2784001,0,0,1.2784001,139.4592,-10.147382)"
         id="g167609"
         style="display:inline;fill:#ff79c6;fill-opacity:1"><g
           id="g167607"
           style="fill:#ff79c6;fill-opacity:1"><g
             style="fill:#ff79c6;fill-opacity:1"
             id="g167605"><g
               id="g167595"
               transform="translate(91.925003,81.962997)"
               style="fill:#ff79c6;fill-opacity:1"><path
                 style="fill:#ff79c6;fill-opacity:1;stroke:none"
                 d="m 2.21875,-3.65625 v -2.4375 C 2.21875,-6.4375 2.234375,-6.5 2.703125,-6.5 H 3.9375 c 0.96875,0 1.3125,0.84375 1.3125,1.375 0,0.640625 -0.484375,1.46875 -1.59375,1.46875 z M 4.5625,-3.5625 C 5.53125,-3.75 6.21875,-4.390625 6.21875,-5.125 6.21875,-5.984375 5.296875,-6.8125 4,-6.8125 H 0.359375 V -6.5 H 0.59375 c 0.765625,0 0.796875,0.109375 0.796875,0.46875 v 5.25 c 0,0.359375 -0.03125,0.46875 -0.796875,0.46875 H 0.359375 V 0 h 3.90625 c 1.328125,0 2.21875,-0.890625 2.21875,-1.828125 0,-0.859375 -0.8125,-1.609375 -1.921875,-1.734375 z m -0.609375,3.25 h -1.25 c -0.46875,0 -0.484375,-0.0625 -0.484375,-0.390625 v -2.71875 h 1.875 C 5.078125,-3.421875 5.5,-2.5 5.5,-1.828125 5.5,-1.125 4.96875,-0.3125 3.953125,-0.3125 Z m 0,0"
                 id="path167593" /></g><g
               id="g167599"
               transform="translate(98.981506,81.962997)"
               style="fill:#ff79c6;fill-opacity:1"><path
                 style="fill:#ff79c6;fill-opacity:1;stroke:none"
                 d="M 4.6875,-2.140625 C 4.6875,-3.40625 3.703125,-4.46875 2.5,-4.46875 c -1.25,0 -2.21875,1.09375 -2.21875,2.328125 0,1.296875 1.03125,2.25 2.203125,2.25 1.203125,0 2.203125,-0.984375 2.203125,-2.25 z m -2.1875,2 c -0.4375,0 -0.875,-0.203125 -1.140625,-0.671875 -0.25,-0.4375 -0.25,-1.046875 -0.25,-1.40625 0,-0.390625 0,-0.921875 0.234375,-1.359375 C 1.609375,-4.03125 2.078125,-4.25 2.484375,-4.25 c 0.4375,0 0.859375,0.21875 1.125,0.65625 0.265625,0.421875 0.265625,1 0.265625,1.375 0,0.359375 0,0.90625 -0.21875,1.34375 C 3.421875,-0.421875 2.984375,-0.140625 2.5,-0.140625 Z m 0,0"
                 id="path167597" /></g><g
               id="g167603"
               transform="translate(103.96281,81.962997)"
               style="fill:#ff79c6;fill-opacity:1"><path
                 style="fill:#ff79c6;fill-opacity:1;stroke:none"
                 d="m 1.71875,-3.765625 v -3.15625 L 0.28125,-6.8125 V -6.5 c 0.703125,0 0.78125,0.0625 0.78125,0.5625 V 0 h 0.25 c 0,-0.015625 0.078125,-0.15625 0.359375,-0.625 0.140625,0.234375 0.5625,0.734375 1.296875,0.734375 1.1875,0 2.21875,-0.984375 2.21875,-2.265625 0,-1.265625 -0.96875,-2.25 -2.109375,-2.25 -0.78125,0 -1.203125,0.46875 -1.359375,0.640625 z m 0.03125,2.625 V -3.1875 c 0,-0.1875 0,-0.203125 0.109375,-0.359375 C 2.25,-4.109375 2.796875,-4.1875 3.03125,-4.1875 c 0.453125,0 0.8125,0.265625 1.046875,0.640625 0.265625,0.40625 0.28125,0.96875 0.28125,1.390625 0,0.359375 -0.015625,0.953125 -0.296875,1.40625 -0.21875,0.3125 -0.59375,0.640625 -1.125,0.640625 -0.453125,0 -0.8125,-0.234375 -1.046875,-0.609375 C 1.75,-0.921875 1.75,-0.953125 1.75,-1.140625 Z m 0,0"
                 id="path167601" /></g></g></g></g><text
         xml:space="preserve"
         transform="matrix(0.26458333,0,0,0.26458333,19.290767,57.766407)"
         id="text25281"
         style="font-size:40px;line-height:1.25;font-family:sans-serif;-inkscape-font-specification:'sans-serif, Normal';letter-spacing:0px;word-spacing:0px;white-space:pre;shape-inside:url(#rect25283);display:inline"><tspan
           x="377.3418"
           y="79"
           id="tspan5898"><tspan
             dx="0 27.929688 11.113281 24.511719 20.839844 20.839844 11.113281"
             id="tspan5896">Classic</tspan></tspan></text><g
         id="g4216"
         transform="matrix(0.05170917,0,0,0.05170917,138.08487,160.3857)"><path
           d="M 257.17,504.21 C 394.8,503.01 505.41,390.47 504.21,252.84 503.01,115.2 390.46,4.59 252.82,5.79 115.18,7 4.58,119.54 5.8,257.19 6.99,394.8 119.54,505.42 257.17,504.2 Z"
           fill="#fccc0f"
           id="path3868" /><path
           d="M 270.06,176.2 C 408.33,175 519.46,61.93 518.26,-76.34 517.06,-214.63 403.97,-325.74 265.69,-324.54 127.41,-323.33 16.3,-210.26 17.5,-71.98 18.7,66.3 131.8,177.42 270.06,176.2 Z"
           fill="none"
           stroke="#000000"
           stroke-width="1.56"
           transform="matrix(0.99536,0,0,0.99536,-11.64,328.83)"
           id="path3870" /><path
           d="M 257.1,495.53 C 389.94,494.36 496.7,385.74 495.53,252.9 494.38,120.05 385.75,13.3 252.9,14.47 120.07,15.62 13.3,124.26 14.47,257.09 c 1.16,132.84 109.8,239.6 242.62,238.44 z"
           fill="#162c77"
           id="path3872" /><path
           d="m 190.62,170.97 c 6.73,8.8 -11.73,-12.73 -12.43,0.51 -0.68,13.24 4.49,7.18 2.51,10.41 -1.98,3.21 16.87,4.26 9.97,-5.7 -6.9,-9.97 0.83,4.4 6.86,5.95 6.03,1.55 9.23,1.53 7.59,-3.68 -1.64,-5.2 -1.72,-13.2 -5.71,-11.57 -4,1.64 -13.64,-2.29 -8.79,4.08 z"
           fill="#ffffff"
           id="path3874" /><path
           d="m 207.52,-153.57 c 6.75,8.85 -11.8,-12.79 -12.5,0.51 -0.67,13.3 4.52,7.21 2.53,10.46 -1.99,3.23 16.95,4.28 10.01,-5.73 -6.94,-10.01 0.84,4.43 6.9,5.98 6.05,1.56 9.27,1.54 7.62,-3.7 -1.65,-5.21 -1.73,-13.26 -5.73,-11.62 -4.02,1.64 -13.71,-2.3 -8.83,4.1 z"
           fill="none"
           stroke="#4c4c4c"
           stroke-width="1.56"
           transform="matrix(0.99536,0,0,0.99536,-15.93,323.83)"
           id="path3876" /><path
           d="m 239.92,169.74 c 6.73,8.8 -11.74,-12.73 -12.42,0.5 -0.7,13.25 4.47,7.19 2.49,10.42 -1.98,3.22 16.87,4.26 9.97,-5.7 -6.9,-9.97 0.85,4.4 6.87,5.95 6.03,1.55 9.24,1.52 7.6,-3.68 -1.66,-5.19 -1.73,-13.2 -5.73,-11.57 -4,1.64 -13.65,-2.29 -8.78,4.08 z"
           fill="#ffffff"
           id="path3878" /><path
           d="m 257.04,-154.8 c 6.76,8.84 -11.8,-12.8 -12.48,0.5 -0.7,13.31 4.5,7.22 2.5,10.46 -1.98,3.23 16.96,4.28 10.03,-5.73 -6.93,-10 0.84,4.42 6.9,5.99 6.06,1.55 9.28,1.52 7.62,-3.7 -1.65,-5.22 -1.73,-13.27 -5.75,-11.63 -4,1.65 -13.71,-2.3 -8.82,4.1 z"
           fill="none"
           stroke="#4c4c4c"
           stroke-width="1.56"
           transform="matrix(0.99536,0,0,0.99536,-15.93,323.83)"
           id="path3880" /><path
           d="m 290.82,168.9 c 6.73,8.8 -11.74,-12.73 -12.42,0.5 -0.68,13.24 4.47,7.18 2.5,10.41 -1.98,3.22 16.87,4.26 9.96,-5.7 -6.9,-9.97 0.85,4.4 6.88,5.96 6.02,1.54 9.23,1.51 7.58,-3.68 -1.65,-5.2 -1.71,-13.21 -5.72,-11.58 -3.99,1.64 -13.65,-2.28 -8.78,4.09 z"
           fill="#ffffff"
           id="path3882" /><path
           d="m 308.18,-155.65 c 6.77,8.85 -11.8,-12.79 -12.47,0.5 -0.69,13.3 4.49,7.22 2.5,10.46 -1.98,3.24 16.96,4.28 10.01,-5.73 -6.92,-10.01 0.85,4.42 6.91,5.99 6.05,1.55 9.28,1.52 7.62,-3.7 -1.66,-5.22 -1.72,-13.27 -5.74,-11.63 -4.01,1.65 -13.72,-2.3 -8.83,4.1 z"
           fill="none"
           stroke="#4c4c4c"
           stroke-width="1.56"
           transform="matrix(0.99536,0,0,0.99536,-15.93,323.83)"
           id="path3884" /><path
           d="m 215.47,170.36 c 3.06,4 1.21,0.94 -2.1,-1.48 -4,-2.9 -9.95,-5.23 -10.33,1.98 -0.68,13.25 4.48,7.18 2.5,10.41 -1.97,3.22 16.88,4.26 9.98,-5.7 -6.91,-9.97 0.85,4.4 6.86,5.96 6.03,1.54 9.23,1.51 7.6,-3.68 -1.66,-5.2 -1.74,-13.21 -5.72,-11.58 -4,1.64 -13.65,-2.28 -8.79,4.09 z"
           fill="#e50f07"
           id="path3886" /><path
           d="m 232.48,-154.18 c 3.08,4.02 1.22,0.94 -2.11,-1.5 -4.01,-2.9 -10,-5.24 -10.37,2 -0.69,13.3 4.5,7.21 2.5,10.46 -1.98,3.23 16.96,4.28 10.03,-5.74 -6.94,-10 0.85,4.43 6.9,6 6.05,1.55 9.27,1.52 7.62,-3.7 -1.66,-5.22 -1.74,-13.27 -5.74,-11.63 -4.01,1.65 -13.71,-2.3 -8.83,4.1 z"
           fill="none"
           stroke="#000000"
           stroke-width="1.56"
           transform="matrix(0.99536,0,0,0.99536,-15.93,323.83)"
           id="path3888" /><path
           d="m 266.78,169.51 c 6.73,8.81 -11.75,-12.73 -12.43,0.5 -0.69,13.24 4.48,7.19 2.5,10.41 -1.98,3.23 16.88,4.25 9.97,-5.7 -6.9,-9.96 0.84,4.4 6.87,5.95 6.03,1.56 9.24,1.53 7.59,-3.67 -1.65,-5.2 -1.72,-13.22 -5.72,-11.57 -3.99,1.64 -13.65,-2.3 -8.78,4.08 z"
           fill="#e50f07"
           id="path3890" /><path
           d="m 284.02,-155.03 c 6.77,8.84 -11.8,-12.8 -12.47,0.5 -0.7,13.3 4.49,7.22 2.5,10.45 -1.98,3.24 16.96,4.28 10.02,-5.73 -6.93,-10 0.84,4.43 6.9,5.99 6.05,1.56 9.28,1.53 7.62,-3.7 -1.65,-5.22 -1.72,-13.28 -5.74,-11.62 -4,1.65 -13.71,-2.3 -8.83,4.1 z"
           fill="none"
           stroke="#000000"
           stroke-width="1.56"
           transform="matrix(0.99536,0,0,0.99536,-15.93,323.83)"
           id="path3892" /><path
           d="m 314.87,169.08 c 6.74,8.82 -11.73,-12.72 -12.4,0.52 -0.7,13.23 4.46,7.17 2.48,10.4 -1.97,3.23 16.88,4.26 9.97,-5.7 -6.9,-9.96 0.85,4.4 6.88,5.95 6.02,1.55 9.22,1.53 7.57,-3.68 -1.65,-5.19 -1.7,-13.2 -5.7,-11.57 -4,1.63 -13.66,-2.28 -8.8,4.08 z"
           fill="#e50f07"
           id="path3894" /><path
           d="m 332.35,-155.47 c 6.77,8.86 -11.8,-12.78 -12.47,0.52 -0.7,13.3 4.48,7.21 2.5,10.45 -1.99,3.24 16.96,4.28 10.02,-5.72 -6.93,-10.01 0.85,4.41 6.9,5.97 6.05,1.56 9.27,1.53 7.62,-3.7 -1.66,-5.2 -1.72,-13.27 -5.74,-11.62 -4.02,1.64 -13.71,-2.3 -8.83,4.1 z"
           fill="none"
           stroke="#000000"
           stroke-width="1.56"
           transform="matrix(0.99536,0,0,0.99536,-15.93,323.83)"
           id="path3896" /><path
           d="m 205.39,164.7 c 0,0 12.25,8.23 19.23,3.4 1.7,-1.19 -12.44,8.9 4.88,1.13 12.67,-5.68 2.54,16.21 14.82,-0.73 5.93,-8.18 0.18,4.99 13.31,9.7 0,0 -3.88,-8.38 0.5,-11.22 7.3,-4.74 3.22,10.92 16.62,-1.75 0,0 3.28,7.58 6.05,4.76 2.79,-2.83 1.78,-3.82 5,-2.65 3.22,1.17 3.1,-1.16 9.77,0.62 3.92,1.05 2.62,1.31 7.46,3.93 0.12,-9.7 -4.22,-11.1 -8.53,-13.53 -4.3,-2.44 -6.78,-23.5 -8.22,-26.9 -2.45,-5.79 0.75,-6.82 -1.99,-21.03 -2.7,-14.2 -19.77,-16.06 -23.78,-17.03 -4.03,-0.97 -3.83,-0.38 -14.44,-0.47 0,0 -31.74,4.58 -7.02,23.4 9.54,7.26 6.26,15.77 6.26,15.77 0.03,4.45 -12.2,11.8 -16.63,16.23 -5.37,5.37 -8.38,15.05 -23.03,15.97 z"
           fill="#ffffff"
           id="path3898" /><path
           d="m 222.35,-159.88 c 0,0 12.3,8.28 19.32,3.42 1.71,-1.19 -12.5,8.94 4.9,1.14 12.73,-5.7 2.56,16.29 14.9,-0.73 5.95,-8.22 0.18,5 13.37,9.75 0,0 -3.9,-8.42 0.5,-11.28 7.33,-4.76 3.24,10.97 16.7,-1.76 0,0 3.29,7.62 6.08,4.78 2.8,-2.84 1.78,-3.84 5.02,-2.66 3.23,1.18 3.1,-1.16 9.8,0.63 3.95,1.05 2.64,1.31 7.5,3.94 0.13,-9.74 -4.23,-11.14 -8.56,-13.59 -4.32,-2.45 -6.8,-23.6 -8.26,-27.03 -2.46,-5.81 0.75,-6.85 -2,-21.13 -2.72,-14.27 -19.86,-16.13 -23.9,-17.1 -4.04,-0.97 -3.84,-0.38 -14.5,-0.48 0,0 -31.89,4.6 -7.05,23.52 9.58,7.29 6.29,15.84 6.29,15.84 0.02,4.46 -12.27,11.86 -16.71,16.3 -5.39,5.4 -8.42,15.13 -23.14,16.05 l -0.26,0.4 z"
           fill="none"
           stroke="#7f7f7f"
           stroke-width="1.56"
           transform="matrix(0.99536,0,0,0.99536,-15.93,323.83)"
           id="path3900" /><path
           d="m 261.8,-215.25 c 0,0 1.58,2.4 4.01,3.58 m -6.77,-8.7 c 1.83,2.5 3.91,4.5 5.53,5.1 m -5.93,-4.71 c 2.5,3.82 4.73,6.1 7.76,6.9 m 15.01,34.9 c 0.25,5.24 0.23,3.83 1.85,5.22 1.62,1.4 5.8,-5.68 5.77,-8.1 m -7.17,-37.36 c 2.04,0.68 3.25,2.4 2.84,3.6 m -0.43,-5.24 c 2.25,0.48 2.83,0.8 3.24,2.8 m 0,-3.83 c 2.4,-0.02 2.81,0.57 3.02,1.58 m -16,14.21 c 0.37,-3.42 -1.4,2.43 1.44,3.61 m -19.17,-7.51 c 3.84,2.4 8.25,8.07 8.28,12.1 m -4.73,-11.3 c 1.84,1.7 4.97,4.7 5.38,6.3"
           fill="none"
           stroke="#8c8c8c"
           stroke-width="1.56"
           stroke-linecap="round"
           transform="matrix(0.99536,0,0,0.99536,-15.93,323.83)"
           id="path3902" /><path
           d="m 286.42,-203.56 c 0.62,4.24 0.23,3.82 2.86,5.42 2.64,1.58 3.59,-5.06 2.55,-8.68 m 1.8,-0.43 c 3.28,5.2 6.11,6.8 3.96,-8.08 m -1.46,16.92 c 1.25,4.42 5.28,4.79 2.78,-4.86 m -11.59,10.58 c 1.65,5.62 4.83,-0.85 4.4,-4.87 m -1.55,8.07 c -1.66,-5.63 2.9,9.23 4.4,-2.87 m -15.85,10.38 c -0.04,-4.85 2.13,7.37 3.95,4.72 0.47,-0.64 0.9,-2.21 1.27,-5.18 m -25.93,0.48 c -0.46,-7.25 1.73,13.27 6.43,-2.48 m -16.01,11.01 c 0.76,-4.43 -1.93,9.7 4.81,-0.84 m 14.12,1.9 c -1.27,-6.85 -1.06,16.51 7.25,-0.07 m -17.25,8.2 c -0.43,-3.63 2.48,6.42 6.43,-1.66 m 27.71,-9.92 c 2.87,6.83 5.69,7.2 7.25,0.75 m -2.08,-8.44 c -1.28,-7.64 3.35,14.46 5.62,-1.26 m -21.99,19.12 c -0.86,-7.64 2.6,20.11 6.87,1.96 m 12.43,-6.15 c -2.47,-7.24 4.13,12.45 6.42,-3.28 m -13.64,6.97 c -2.47,-6.83 4.56,13.65 6.86,1.54 m -31.39,2.7 c -1.64,-4.42 0.89,10.05 5.65,0.34"
           fill="none"
           stroke="#8c8c8c"
           stroke-width="1.56"
           stroke-linecap="round"
           transform="matrix(0.99536,0,0,0.99536,-15.93,323.83)"
           id="path3904" /><path
           d="m 241.38,102.9 c -0.13,0.76 -0.4,1.71 -0.4,1.71 0,0 3.67,-0.03 8.78,2.62 3.27,1.7 5.08,-2.48 5.04,-1.75 0.15,-2.55 -0.1,-4.52 0.58,-5.98 0,0 -2.34,0.05 -2.88,0.14 -2.48,0.4 -1.67,-0.01 -3.27,0 0,0 -7.07,-1.18 -7.85,3.27 z"
           fill="#727272"
           id="path3906" /><path
           d="m 249.7,104.61 c 1.5,0 2.2,-0.92 2.69,-1.73 0.37,-0.62 0.74,-1.49 0.25,-1.8 -0.5,-0.3 -2.22,0.12 -2.96,0.12 -0.88,0.02 -1.8,-0.15 -2.28,0.27 -0.35,0.29 -0.4,1.08 -0.4,1.47 0.01,0.93 1.22,1.68 2.7,1.67 z m -8.19,11.25 c 1.7,1.7 12.5,2.03 10.86,0.53 -1.65,-1.49 -5.71,-1.62 -6.53,-4.03 0,0 -6.7,-11.55 -14.55,-12.86 -7.84,-1.3 -0.85,-0.23 -1.3,-0.26 -3.53,-0.25 -4.33,0 -5.24,0.66 -6.93,1.04 -16.1,-0.66 -7.35,18.03 0.83,1.74 -0.81,-2.5 1.59,-2.71 0,0 22.1,0.23 22.52,0.64 z"
           fill="#fccc0f"
           id="path3908" /><path
           d="m 258.64,-208.93 c 1.7,1.7 12.57,2.03 10.9,0.52 -1.64,-1.5 -5.73,-1.62 -6.55,-4.04 0,0 -6.73,-11.61 -14.61,-12.92 -7.89,-1.31 -0.86,-0.23 -1.31,-0.26 -3.55,-0.26 -4.35,0 -5.26,0.66 -6.97,1.05 -16.18,-0.66 -7.39,18.11 0.83,1.75 -0.82,-2.5 1.6,-2.72 0,0 22.2,0.23 22.62,0.65 z"
           fill="none"
           stroke="#595959"
           stroke-width="1.56"
           transform="matrix(0.99536,0,0,0.99536,-15.93,323.83)"
           id="path3910" /><path
           d="m 267.06,-208 c -15.4,-3.57 -22.9,-9.87 -25.25,-16.97 m -6.97,18.4 c 0,0 -0.28,-4.12 1.54,-4.43 1.8,-0.32 5.03,0.05 20.02,-0.7"
           fill="none"
           stroke="#4c4c4c"
           stroke-width="1.56"
           transform="matrix(0.99536,0,0,0.99536,-15.93,323.83)"
           id="path3912" /><path
           d="m 250.26,103.59 a 0.8,0.8 0 0 0 0.78,-0.8 0.77,0.77 0 0 0 -0.8,-0.76 0.78,0.78 0 0 0 -0.76,0.78 c 0,0.44 0.35,0.78 0.78,0.78 z"
           id="path3914" /><path
           d="m 231.86,104.04 c 0.06,0.07 0,0.25 0.04,0.37 0.1,0.3 0.44,0.44 0.57,0.71 0.24,0.47 0.56,0.72 0.88,1.13 a 19,19 0 0 0 2.13,2.4 c 0.16,-0.73 -1.37,-2.6 -1.98,-3.04 -0.36,-0.45 -0.75,-1.08 -1.17,-1.85 -0.27,0.04 -0.74,-0.49 -0.96,-0.64 -0.09,0.42 0.23,0.64 0.49,0.92 z"
           fill="#4c4c4c"
           id="path3916" /><path
           d="m 61.86,366.74 c 0,0 64.7,119.61 203.98,109.53 134.57,-9.71 180.82,-108.18 185.27,-121.93 1.42,-4.39 2.86,-7.79 -0.28,-10.63 -6.7,-6.06 -26.84,-8.8 -30.29,-8.42 -7.28,0.81 -6.64,6.59 -4.8,8.35 1.95,1.83 5.05,0.42 4.46,1.69 -37.22,79.58 -126.35,98.14 -153.58,99.65 0,0 -111.87,15.76 -174.85,-92.46 0,0 8.78,-14.66 -5.99,-14.27 -5.61,0.14 -10.48,13.4 -20.4,17.36 0,0 -7.7,4.83 -3.52,11.13 z"
           fill="#f9db11"
           id="path3918" /><path
           d="m 79.78,33.69 c 0,0 10.93,0 6.58,11.7 -1.53,4.16 10.26,-13.14 21.83,-16.16 m 362.17,-7.11 c 0,0 -1.07,-1.27 -2.77,-1.57 -2.23,-0.4 -5.78,1.57 -5.12,6.05 0.13,0.86 0.74,1.54 1.05,1.78 4.15,3.24 -10.1,-5.6 -25.35,-6.78"
           fill="none"
           stroke="#3f3f3f"
           stroke-width="1.56"
           stroke-linecap="round"
           transform="matrix(0.99536,0,0,0.99536,-15.93,323.83)"
           id="path3920" /><path
           d="m 45.68,294.84 c -5.85,2.78 -5.75,8.18 -4.96,11.55 1.5,6.36 7.42,10.39 16.66,8.2 8.27,-1.96 13.93,-6.4 11.87,-15.1 -0.73,-3.08 -3.46,-8.07 -12,-7.75 l -1.1,-4.6 c 13.72,-1.18 16.86,9.44 17.48,12.09 1.89,7.97 -1.44,17.02 -14.94,20.21 -10.81,2.56 -19.75,-1.83 -22.17,-12.05 -2.14,-9.05 2.37,-15.08 8.08,-17.15 z m 21.51,-38.35 2.01,26.55 -35.98,2.73 -1.99,-26.2 4.31,-0.33 1.62,21.35 11.03,-0.84 -1.5,-19.7 4.31,-0.32 1.5,19.7 12.02,-0.92 -1.64,-21.7 4.3,-0.32 z m -34.06,-28.15 0.38,-4.7 35.97,2.88 -0.44,5.47 -30.53,15.94 v 0.1 l 29.05,2.34 -0.38,4.71 -35.97,-2.9 0.47,-5.75 30.5,-15.65 0.01,-0.1 z m 1.06,-9.18 6.67,-28.53 4.21,0.99 -2.78,11.89 30.93,7.23 -1.11,4.75 -30.93,-7.24 -2.79,11.9 z"
           fill="#ffffff"
           id="path3922" /><path
           d="m 77.79,194.58 -1.81,4.53 -33.53,-13.4 6.2,-15.5 c 2.2,-5.5 6.32,-10.25 13.42,-7.41 4.94,1.97 5.76,5.22 6.16,7.88 1.56,-1.6 3.17,-3.18 7.9,-1.5 l 6.19,2.14 c 1.89,0.7 2.68,0.75 4.03,-0.33 l 0.75,0.3 -2.22,5.55 c -2.32,-0.17 -7.46,-2.06 -8.72,-2.56 -2.76,-1.1 -6.2,-1.83 -8.37,3.59 l -4.38,10.97 z m -18.26,-7.29 4.2,-10.5 c 1.32,-3.32 1.89,-7.16 -3.06,-9.14 -5.18,-2.07 -7.12,1.54 -8.01,3.78 l -4.52,11.3 11.4,4.56 z"
           fill="#ffffff"
           fill-rule="evenodd"
           id="path3924" /><path
           d="m 81.34,160.94 7.1,8.61 -2.58,4.33 -24.06,-30.13 2.83,-4.75 37.69,7.24 -2.73,4.57 -10.85,-2.3 z m 2.79,-13.13 -16.37,-3.55 -0.06,0.08 10.7,13.1 z"
           fill="#ffffff"
           fill-rule="evenodd"
           id="path3926" /><path
           d="m 101.93,140.5 11.4,-14.32 3.38,2.7 -14.44,18.12 -28.23,-22.49 3.04,-3.8 24.85,19.78 z m 28.57,-24.65 -3.6,3.3 -24.4,-26.58 3.59,-3.3 24.4,26.58 z m 0.26,-46.05 3.8,-2.8 21.4,29.05 -4.4,3.24 -32.06,-12.58 -0.08,0.06 17.29,23.46 -3.8,2.8 L 111.5,84 l 4.65,-3.43 31.8,12.77 0.09,-0.07 -17.3,-23.46 z m 7.69,-5.27 25.9,-13.68 2.02,3.83 -10.8,5.7 14.83,28.08 -4.31,2.28 -14.83,-28.09 -10.8,5.7 z m 67.73,9.54 -25.1,8.92 -12.09,-34 24.77,-8.8 1.44,4.06 -20.17,7.18 3.7,10.42 18.62,-6.62 1.45,4.07 -18.61,6.62 4.04,11.36 20.5,-7.29 z m 5.19,-5.3 17.92,-3.72 0.88,4.23 -22.7,4.71 -7.33,-35.34 4.78,-0.99 6.45,31.1 z m 23.78,-4.19 18.23,-1.5 0.35,4.3 -23.09,1.9 -2.96,-35.96 4.86,-0.4 z m 24.07,3.42 -4.88,-0.01 0.15,-36.1 4.87,0.02 -0.14,36.1 z m 21.47,-17.85 15.72,1.87 -2.27,19.17 -3.16,-0.37 -0.6,-4.79 c -2.84,3.11 -7.6,4.77 -12.48,4.2 -6.14,-0.73 -8.88,-3.34 -10.5,-5.36 -4.88,-5.84 -4.3,-12 -3.85,-15.8 1.04,-8.73 7.5,-17.93 19.18,-16.54 6.68,0.8 13.68,5.47 13.77,13.63 l -4.7,-0.56 c -0.8,-6.42 -5.89,-8.34 -9.83,-8.8 -6.44,-0.77 -12.34,3.74 -13.46,13.12 -0.86,7.29 0.64,15.06 10.18,16.2 1.8,0.2 4.71,0.35 7.61,-1.43 3.44,-2.12 4.62,-5.22 5.08,-9.07 L 280.19,54.3 Z m 42.17,29.52 -25.55,-7.54 10.21,-34.61 25.2,7.43 -1.22,4.15 -20.53,-6.06 -3.13,10.61 18.95,5.6 -1.23,4.13 -18.94,-5.58 -3.41,11.56 20.87,6.16 z m 38.87,-21.5 4.26,2.05 -15.66,32.51 -4.93,-2.37 -3.88,-34.23 -0.1,-0.05 -12.65,26.27 -4.25,-2.05 15.66,-32.51 5.2,2.5 3.62,34.11 0.08,0.04 12.65,-26.26 z m 26.41,30.13 c 2.56,-5.95 -1.08,-9.95 -3.91,-11.96 -5.33,-3.77 -12.43,-2.89 -17.92,4.86 -4.91,6.93 -6.23,14 1.07,19.18 2.58,1.83 7.93,3.77 14.13,-2.12 l 3.85,2.73 c -9.5,9.95 -18.87,4.05 -21.1,2.48 -6.68,-4.74 -10.16,-13.73 -2.14,-25.05 6.42,-9.06 16.04,-11.68 24.6,-5.6 7.6,5.37 8.19,12.88 5.27,18.2 z m 9.19,42.94 -19.08,-18.59 25.17,-25.86 18.83,18.34 -3.01,3.1 -15.34,-14.93 -7.71,7.93 14.15,13.77 -3.02,3.1 -14.15,-13.79 -8.42,8.65 15.6,15.18 z"
           fill="#ffffff"
           id="path3928" /><path
           d="m 418.08,141.12 -10.85,2.62 -2.77,-4.2 37.62,-8.48 3.03,4.62 -22.97,30.74 -2.93,-4.45 6.82,-8.75 z m 10.59,8.25 10.35,-13.18 -0.06,-0.08 -16.44,3.9 z"
           fill="#ffffff"
           fill-rule="evenodd"
           id="path3930" /><path
           d="m 445.65,172.07 6.42,14.47 -17.64,7.84 -1.28,-2.9 3.8,-2.95 c -4.13,-0.87 -7.98,-4.1 -9.98,-8.6 -2.51,-5.65 -1.67,-9.33 -0.78,-11.76 2.54,-7.18 8.14,-9.83 11.62,-11.38 8.05,-3.57 19.25,-2.72 24.03,8.03 2.73,6.16 2.28,14.55 -4.69,18.8 l -1.91,-4.31 c 5.11,-3.98 4.16,-9.33 2.55,-12.96 -2.63,-5.93 -9.53,-8.7 -18.17,-4.86 -6.7,2.98 -12.61,8.24 -8.72,17.02 0.74,1.65 2.1,4.23 5.11,5.81 3.58,1.88 6.85,1.3 10.4,-0.27 l -4.58,-10.29 3.82,-1.7 z m -4,50.56 -6.67,-25.8 34.95,-9.03 6.58,25.45 -4.19,1.08 -5.36,-20.73 -10.7,2.77 4.94,19.13 -4.18,1.08 -4.95,-19.13 -11.68,3.02 5.44,21.07 z m 38.41,21.34 0.45,4.7 -35.93,3.47 -0.52,-5.46 27.26,-21.06 v -0.1 l -29.03,2.8 -0.46,-4.7 35.94,-3.47 0.55,5.76 -27.3,20.76 0.01,0.1 z m -41.4,57.35 1.1,-4.75 14.16,3.29 24.08,-8.4 -1.28,5.53 -19.24,6.17 14.55,14 -1.29,5.59 -17.93,-18.14 z"
           fill="#ffffff"
           id="path3932" /><path
           d="m 109.04,387.58 -9.58,8.3 c -3.03,2.63 -7.22,2.95 -10.73,-1.1 -3.44,-3.98 -2.37,-7.9 0.39,-10.29 l 9.85,-8.54 1.73,2 -9.3,8.06 c -3.21,2.78 -2.4,5.5 -0.85,7.29 1.59,1.83 4.21,3.16 7.42,0.37 l 9.35,-8.09 z m 11.84,11.72 1.83,1.78 -13.62,14.03 -2.13,-2.07 3.87,-18.25 -0.04,-0.04 -11,11.33 -1.84,-1.79 13.63,-14.02 2.24,2.18 -3.99,18.15 0.04,0.03 11,-11.33 z m -6.21,20.56 -2,-1.73 12.79,-14.8 2,1.74 z m 14.04,-13.53 12.55,9.74 -1.44,1.85 -5.23,-4.06 -10.55,13.6 -2.1,-1.62 10.56,-13.6 -5.22,-4.06 z m 14.88,34.67 -12.06,-7.92 10.73,-16.33 11.9,7.81 -1.28,1.96 -9.7,-6.37 -3.28,5 8.94,5.88 -1.29,1.96 -8.94,-5.88 -3.59,5.46 9.86,6.47 z"
           fill="#e50f07"
           id="path3934" /><path
           d="m 156.83,426.14 7,3.7 c 4.51,2.38 5.48,7.26 2.84,12.25 -2.04,3.87 -6.38,7.99 -12.06,4.99 l -6.91,-3.65 z m -5.74,16.53 4.53,2.39 c 3.03,1.6 6.27,0.26 8.57,-4.1 2.3,-4.36 1.46,-7.6 -1.72,-9.28 l -4.36,-2.3 z"
           fill="#e50f07"
           fill-rule="evenodd"
           id="path3936" /><path
           d="m 187.54,446.36 c 0.92,-2.89 -1.1,-4.65 -3.16,-5.42 -1.56,-0.57 -4.35,-1.12 -5.38,1.67 -0.58,1.55 0.33,2.47 1.3,3.13 l 4.79,3.14 c 2.17,1.44 3.42,3.53 2.34,6.44 -1.61,4.34 -6.1,4.04 -9.23,2.87 -3.4,-1.26 -4.34,-2.78 -4.88,-3.82 -1.04,-1.98 -0.77,-3.62 -0.14,-5.33 l 2.32,0.86 c -1.23,3.32 1.11,5.29 3.46,6.16 1.79,0.67 4.97,1.33 5.94,-1.3 0.72,-1.91 0.05,-2.86 -2.7,-4.7 l -3.42,-2.25 c -1.1,-0.73 -3.49,-2.58 -2.3,-5.77 1.06,-2.86 3.97,-4.97 8.4,-3.32 6.41,2.38 5.63,6.45 4.98,8.5 z m 5.74,-4.01 15.33,4.1 -0.6,2.27 -6.4,-1.72 -4.44,16.63 -2.55,-0.69 4.44,-16.62 -6.38,-1.7 z"
           fill="#e50f07"
           id="path3938" /><path
           d="m 211.07,460.96 -2.96,5.27 -2.69,-0.45 10.51,-18.05 2.96,0.5 3.71,20.46 -2.84,-0.48 -0.96,-5.94 -7.73,-1.3 z m 7.18,-1.16 -1.4,-8.96 -0.06,-0.01 -4.53,7.96 6,1.01 z"
           fill="#e50f07"
           fill-rule="evenodd"
           id="path3940" /><path
           d="m 225.94,449.39 15.83,1.2 -0.18,2.34 -6.6,-0.5 -1.3,17.15 -2.64,-0.2 1.3,-17.15 -6.59,-0.51 z m 32.56,20.61 -14.43,0.15 -0.22,-19.54 14.24,-0.16 0.03,2.34 -11.6,0.13 0.06,6 10.7,-0.13 0.03,2.34 -10.7,0.12 0.07,6.53 11.79,-0.13 0.02,2.34 z m 14.63,-15.11 c -0.4,-3 -2.99,-3.73 -5.19,-3.53 -1.65,0.15 -4.4,0.87 -4.13,3.82 0.15,1.65 1.37,2.1 2.53,2.26 l 5.67,0.77 c 2.58,0.37 4.61,1.72 4.9,4.81 0.4,4.61 -3.76,6.27 -7.1,6.58 -3.6,0.32 -5.11,-0.64 -6.05,-1.35 -1.8,-1.33 -2.26,-2.94 -2.43,-4.75 l 2.47,-0.23 c 0.32,3.53 3.28,4.3 5.78,4.08 1.9,-0.18 5.06,-0.95 4.8,-3.75 -0.18,-2.03 -1.2,-2.6 -4.45,-3.07 l -4.08,-0.56 c -1.3,-0.18 -4.25,-0.82 -4.56,-4.2 -0.27,-3.05 1.44,-6.2 6.15,-6.63 6.81,-0.62 7.86,3.39 8.16,5.52 z"
           fill="#e50f07"
           id="path3942" /><path
           d="m 297.9,465.56 c -7.16,1.42 -10.53,-4.1 -11.36,-8.23 -0.82,-4.14 0.18,-10.53 7.33,-11.95 7.15,-1.43 10.53,4.09 11.36,8.22 0.82,4.14 -0.18,10.53 -7.33,11.96 z m -3.57,-17.89 c -4.16,0.84 -6.02,4.61 -5.12,9.13 0.9,4.51 4.06,7.3 8.23,6.46 4.16,-0.83 6.02,-4.61 5.12,-9.12 -0.9,-4.52 -4.06,-7.3 -8.23,-6.47 z"
           fill="#e50f07"
           fill-rule="evenodd"
           id="path3944" /><path
           d="m 313.87,461.3 -2.54,0.73 -5.4,-18.79 13,-3.73 0.65,2.25 -10.46,3 1.65,5.76 9.21,-2.65 0.65,2.25 -9.22,2.65 z"
           fill="#e50f07"
           id="path3946" /><path
           d="m 336.06,447.92 0.33,6.04 -2.5,1.05 -0.82,-20.86 2.76,-1.17 14.11,15.27 -2.66,1.12 -4,-4.5 z m 5.45,-4.84 -6.01,-6.8 -0.05,0.02 0.46,9.14 z"
           fill="#e50f07"
           fill-rule="evenodd"
           id="path3948" /><path
           d="m 367.3,438.97 -5.56,-10.12 c -0.28,-0.5 -1.42,-2.7 -2.3,-4.3 l -0.05,0.03 3.08,17.04 -2.28,1.26 -12.72,-11.72 -0.05,0.02 c 0.87,1.58 2.12,3.73 2.38,4.23 l 5.57,10.12 -2.24,1.23 -9.42,-17.14 3.32,-1.81 12.85,11.79 0.05,-0.03 -3.1,-17.16 3.3,-1.8 9.4,17.13 -2.24,1.23 z m 18.65,-12.53 -11.82,8.27 -11.2,-16.01 11.66,-8.16 1.34,1.91 -9.5,6.65 3.43,4.91 8.77,-6.13 1.34,1.91 -8.76,6.14 3.74,5.35 9.66,-6.76 z"
           fill="#e50f07"
           id="path3950" /><path
           d="m 391.83,421.68 -2,1.73 -12.78,-14.79 6.84,-5.91 c 2.43,-2.1 5.6,-3.36 8.3,-0.23 a 4.8,4.8 0 0 1 1,5.33 c 1.14,-0.38 2.3,-0.74 4.17,1.25 l 2.45,2.57 c 0.72,0.8 1.1,1.03 2.01,0.84 l 0.29,0.33 -2.45,2.12 c -1.07,-0.66 -3.07,-2.85 -3.56,-3.4 -1.05,-1.22 -2.52,-2.43 -4.9,-0.36 l -4.85,4.18 z m -6.96,-8.05 4.64,-4 c 1.46,-1.27 2.68,-2.98 0.8,-5.16 -1.98,-2.29 -3.8,-1.03 -4.8,-0.18 l -4.99,4.31 z"
           fill="#e00c05"
           fill-rule="evenodd"
           id="path3952" /><path
           d="m 406.96,407.77 -1.86,1.87 -13.85,-13.8 1.87,-1.88 z m 2.36,-23.07 c -3.08,-1.68 -5.42,0.09 -6.64,1.52 -2.3,2.68 -2.18,6.55 1.72,9.9 3.5,3 7.25,4.06 10.4,0.39 1.11,-1.3 2.43,-4.1 -0.43,-7.73 l 1.66,-1.95 c 4.89,5.63 1.24,10.4 0.29,11.5 -2.9,3.37 -7.92,4.8 -13.63,-0.09 -4.56,-3.91 -5.5,-9.23 -1.79,-13.55 3.28,-3.82 7.36,-3.77 10.09,-1.93 z"
           fill="#e50f07"
           id="path3954" /><path
           d="m 421.08,382.31 3.53,4.9 -1.54,2.25 -11.94,-17.13 1.7,-2.47 20.12,5.24 -1.63,2.38 -5.8,-1.63 z m 1.98,-7 -8.73,-2.5 -0.02,0.05 5.3,7.45 z"
           fill="#e50f07"
           fill-rule="evenodd"
           id="path3956" /><path
           d="m 285.88,166.53 c 5.89,5.62 8.1,5.78 2.26,-8 z"
           fill="#ffffff"
           id="path3958" /><path
           d="m 303.22,-158.03 c 5.91,5.64 8.14,5.8 2.27,-8.03 z"
           fill="none"
           stroke="#8c8c8c"
           stroke-width="1.56"
           stroke-linecap="round"
           transform="matrix(0.99536,0,0,0.99536,-15.93,323.83)"
           id="path3960" /><path
           d="m 271.13,-224.4 c -0.24,0 2.92,1.08 5.47,-2.1 m -5.7,1.44 c -3.35,0.77 2.75,0.5 2.94,-2.55"
           fill="none"
           stroke="#727272"
           stroke-width="1.56"
           stroke-linecap="round"
           transform="matrix(0.99536,0,0,0.99536,-15.93,323.83)"
           id="path3962" /><path
           d="m 258.25,-209.2 c 3.03,2.2 6.94,7.34 7.36,8.94 m 17.05,11.93 c -0.04,-4.16 1.56,4.24 3.17,5.05 0.73,0.37 1.47,-0.83 2.06,-5.5"
           fill="none"
           stroke="#8c8c8c"
           stroke-width="1.56"
           stroke-linecap="round"
           transform="matrix(0.99536,0,0,0.99536,-15.93,323.83)"
           id="path3964" /><path
           d="m 151.44,189.18 c 3.87,1.41 8.1,9.2 8.1,12.89 l 1.47,169.24 c 0,15.07 16.1,25.39 29.88,25.39 h 38.67 c 12.53,0 21.4,1.08 25.4,16.01 4,-14.93 12.85,-16.01 25.38,-16.01 h 38.77 c 13.78,0 29.88,-10.32 29.88,-25.4 l 1.47,-169.23 c 0,-3.69 4.23,-11.48 8.1,-12.89 h -103.6 z"
           fill="#ffffff"
           id="path3966" /><path
           d="m 313.4,270.18 -58,24.92 10.04,3.49 47.96,-28.4 z"
           fill="#6b0000"
           id="path3968" /><path
           d="m 330.87,-53.9 -58.28,25.03 10.1,3.51 z"
           fill="none"
           stroke="#000000"
           stroke-width="1.56"
           transform="matrix(0.99536,0,0,0.99536,-15.93,323.83)"
           id="path3970" /><path
           d="m 230.2,237.2 25.2,57.9 3.45,-10.08 z"
           fill="#6b0000"
           id="path3972" /><path
           d="m 247.27,-87.03 25.32,58.16 3.47,-10.12 z"
           fill="none"
           stroke="#000000"
           stroke-width="1.56"
           transform="matrix(0.99536,0,0,0.99536,-15.93,323.83)"
           id="path3974" /><path
           d="m 280.58,353 -25.18,-57.9 9.7,4.33 15.48,53.56 z"
           fill="#6b0000"
           id="path3976" /><path
           d="m 297.9,29.3 -25.3,-58.17 9.75,4.35 z"
           fill="none"
           stroke="#000000"
           stroke-width="1.56"
           transform="matrix(0.99536,0,0,0.99536,-15.93,323.83)"
           id="path3978" /><path
           d="m 197,319.1 58.4,-24 -4.54,9.61 z"
           fill="#6b0000"
           id="path3980" /><path
           d="m 213.92,-4.76 58.67,-24.1 -4.56,9.65 -54.1,14.45 z"
           fill="none"
           stroke="#000000"
           stroke-width="1.56"
           transform="matrix(0.99536,0,0,0.99536,-15.93,323.83)"
           id="path3982" /><path
           d="m 280.47,237.15 -25.07,57.95 9.7,-4.36 z"
           fill="#6b0000"
           id="path3984" /><path
           d="m 297.78,-87.08 -25.18,58.21 9.76,-4.37 15.43,-53.84 z"
           fill="none"
           stroke="#000000"
           stroke-width="1.56"
           transform="matrix(0.99536,0,0,0.99536,-15.93,323.83)"
           id="path3986" /><path
           d="m 313.46,319.89 -58.06,-24.8 10.03,-3.5 z"
           fill="#6b0000"
           id="path3988" /><path
           d="m 330.93,-3.96 -58.34,-24.9 10.08,-3.54 z"
           fill="none"
           stroke="#000000"
           stroke-width="1.56"
           transform="matrix(0.99536,0,0,0.99536,-15.93,323.83)"
           id="path3990" /><path
           d="m 229.42,352.64 25.98,-57.54 3.3,10.1 z"
           fill="#6b0000"
           id="path3992" /><path
           d="m 246.5,28.95 26.1,-57.82 3.31,10.15 -29.42,47.67 z"
           fill="none"
           stroke="#000000"
           stroke-width="1.56"
           transform="matrix(0.99536,0,0,0.99536,-15.93,323.83)"
           id="path3994" /><path
           d="m 197.33,270.3 58.07,24.8 -10.05,3.51 -48.02,-28.32 z"
           fill="#6b0000"
           id="path3996" /><path
           d="m 214.26,-53.79 58.33,24.92 -10.1,3.53 z"
           fill="none"
           stroke="#000000"
           stroke-width="1.56"
           transform="matrix(0.99536,0,0,0.99536,-15.93,323.83)"
           id="path3998" /><path
           d="m 197.11,319.37 58.29,-24.27 -10.02,-3.62 -48.27,27.9 z"
           fill="#e50f07"
           id="path4000" /><path
           d="m 214.03,-4.48 58.56,-24.39 -10.06,-3.63 z"
           fill="none"
           stroke="#000000"
           stroke-width="1.56"
           transform="matrix(0.99536,0,0,0.99536,-15.93,323.83)"
           id="path4002" /><path
           d="M 280.57,352.98 255.4,295.1 251.93,305.14 Z"
           fill="#e50f07"
           id="path4004" /><path
           d="m 297.88,29.29 -25.28,-58.16 -3.48,10.1 28.77,48.06 z"
           fill="none"
           stroke="#000000"
           stroke-width="1.56"
           transform="matrix(0.99536,0,0,0.99536,-15.93,323.83)"
           id="path4006" /><path
           d="m 230.2,237.2 25.2,57.9 -9.73,-4.35 -15.46,-53.55 z"
           fill="#e50f07"
           id="path4008" /><path
           d="m 247.28,-87.03 25.31,58.16 -9.77,-4.36 z"
           fill="none"
           stroke="#000000"
           stroke-width="1.56"
           transform="matrix(0.99536,0,0,0.99536,-15.93,323.83)"
           id="path4010" /><path
           d="m 313.42,270.18 -58.02,24.92 4.37,-9.7 z"
           fill="#e50f07"
           id="path4012" /><path
           d="m 330.88,-53.9 -58.28,25.03 4.4,-9.74 53.9,-15.29 z"
           fill="none"
           stroke="#000000"
           stroke-width="1.56"
           transform="matrix(0.99536,0,0,0.99536,-15.93,323.83)"
           id="path4014" /><path
           d="m 197.32,270.31 58.08,24.79 -4.41,-9.7 z"
           fill="#e50f07"
           id="path4016" /><path
           d="m 214.24,-53.77 58.35,24.9 -4.43,-9.74 z"
           fill="none"
           stroke="#000000"
           stroke-width="1.56"
           transform="matrix(0.99536,0,0,0.99536,-15.93,323.83)"
           id="path4018" /><path
           d="m 229.69,352.76 25.7,-57.66 -9.75,4.25 z"
           fill="#e50f07"
           id="path4020" /><path
           d="m 246.76,29.07 25.83,-57.94 -9.8,4.27 z"
           fill="none"
           stroke="#000000"
           stroke-width="1.56"
           transform="matrix(0.99536,0,0,0.99536,-15.93,323.83)"
           id="path4022" /><path
           d="m 313.46,319.89 -58.06,-24.8 4.4,9.69 53.66,15.1 z"
           fill="#e50f07"
           id="path4024" /><path
           d="m 330.93,-3.96 -58.34,-24.9 4.42,9.72 z"
           fill="none"
           stroke="#000000"
           stroke-width="1.56"
           transform="matrix(0.99536,0,0,0.99536,-15.93,323.83)"
           id="path4026" /><path
           d="M 280.47,237.15 255.4,295.1 251.92,285.03 Z"
           fill="#e50f07"
           id="path4028" /><path
           d="m 297.78,-87.08 -25.18,58.21 -3.49,-10.1 28.68,-48.11 z"
           fill="none"
           stroke="#000000"
           stroke-width="1.56"
           transform="matrix(0.99536,0,0,0.99536,-15.93,323.83)"
           id="path4030" /><path
           d="m 306.73,245.23 -51.33,49.87 12.04,-0.37 z"
           fill="#6b0000"
           id="path4032" /><path
           d="m 324.16,-78.97 -51.57,50.1 12.1,-0.37 z"
           fill="none"
           stroke="#000000"
           stroke-width="1.56"
           transform="matrix(0.99536,0,0,0.99536,-15.93,323.83)"
           id="path4034" /><path
           d="m 305.48,346.18 -50.08,-51.08 12.02,0.65 z"
           fill="#6b0000"
           id="path4036" /><path
           d="m 322.91,22.46 -50.31,-51.33 12.09,0.66 38.23,50.67 z"
           fill="none"
           stroke="#000000"
           stroke-width="1.56"
           transform="matrix(0.99536,0,0,0.99536,-15.93,323.83)"
           id="path4038" /><path
           d="m 203.3,344.14 52.1,-49.04 -0.9,12.01 z"
           fill="#6b0000"
           id="path4040" /><path
           d="m 220.25,20.4 52.34,-49.27 -0.9,12.07 z"
           fill="none"
           stroke="#000000"
           stroke-width="1.56"
           transform="matrix(0.99536,0,0,0.99536,-15.93,323.83)"
           id="path4042" /><path
           d="m 205.3,244 50.1,51.1 -12.06,-0.66 z"
           fill="#6b0000"
           id="path4044" /><path
           d="m 222.26,-80.2 50.33,51.33 -12.1,-0.66 z"
           fill="none"
           stroke="#000000"
           stroke-width="1.56"
           transform="matrix(0.99536,0,0,0.99536,-15.93,323.83)"
           id="path4046" /><path
           d="m 205.28,244.01 50.12,51.09 -0.44,-12.06 z"
           fill="#e50f07"
           id="path4048" /><path
           d="m 222.24,-80.2 50.35,51.33 -0.43,-12.1 -49.92,-39.22 z"
           fill="none"
           stroke="#000000"
           stroke-width="1.56"
           transform="matrix(0.99536,0,0,0.99536,-15.93,323.83)"
           id="path4050" /><path
           d="m 203.52,344.38 51.88,-49.28 -12.06,0.23 z"
           fill="#e50f07"
           id="path4052" /><path
           d="m 220.48,20.65 52.11,-49.52 -12.11,0.24 z"
           fill="none"
           stroke="#000000"
           stroke-width="1.56"
           transform="matrix(0.99536,0,0,0.99536,-15.93,323.83)"
           id="path4054" /><path
           d="m 305.48,346.18 -50.08,-51.08 0.4,12.04 z"
           fill="#e50f07"
           id="path4056" /><path
           d="m 322.91,22.46 -50.31,-51.33 0.42,12.1 49.9,39.23 z"
           fill="none"
           stroke="#000000"
           stroke-width="1.56"
           transform="matrix(0.99536,0,0,0.99536,-15.93,323.83)"
           id="path4058" /><path
           d="m 306.73,245.23 -51.33,49.87 0.7,-12.04 z"
           fill="#e50f07"
           id="path4060" /><path
           d="m 324.16,-78.97 -51.57,50.1 0.71,-12.1 z"
           fill="none"
           stroke="#000000"
           stroke-width="1.56"
           transform="matrix(0.99536,0,0,0.99536,-15.93,323.83)"
           id="path4062" /><path
           d="m 171.2,295.85 84.2,-0.75 -9.63,-9.48 -74.56,10.23 z m 84.81,83.41 -0.61,-84.16 -9.75,9 z"
           fill="#e50f07"
           id="path4064" /><path
           d="m 273.2,55.7 -0.6,-84.57 -9.8,9.06 10.4,75.5 z"
           fill="none"
           stroke="#000000"
           stroke-width="1.56"
           transform="matrix(0.99536,0,0,0.99536,-15.93,323.83)"
           id="path4066" /><path
           d="m 255.05,210.91 0.35,84.19 -9.63,-9.6 z"
           fill="#e50f07"
           id="path4068" /><path
           d="m 272.24,-113.44 0.35,84.57 -9.66,-9.63 z"
           fill="none"
           stroke="#000000"
           stroke-width="1.56"
           transform="matrix(0.99536,0,0,0.99536,-15.93,323.83)"
           id="path4070" /><path
           d="m 339.57,294.36 -84.17,0.74 9.53,-9.67 z"
           fill="#e50f07"
           id="path4072" /><path
           d="m 357.16,-29.6 -84.57,0.73 9.58,-9.71 74.99,8.97 z"
           fill="none"
           stroke="#000000"
           stroke-width="1.56"
           transform="matrix(0.99536,0,0,0.99536,-15.93,323.83)"
           id="path4074" /><path
           d="m 255.05,210.91 0.35,84.19 9.53,-9.6 z"
           fill="#6b0000"
           id="path4076" /><path
           d="m 272.24,-113.44 0.35,84.57 9.58,-9.63 z"
           fill="none"
           stroke="#000000"
           stroke-width="1.56"
           transform="matrix(0.99536,0,0,0.99536,-15.93,323.83)"
           id="path4078" /><path
           d="m 256.02,379.26 -0.62,-84.16 9.64,9.47 -9.02,74.7 z"
           fill="#6b0000"
           id="path4080" /><path
           d="m 273.22,55.7 -0.63,-84.57 9.69,9.52 -9.06,75.04 z"
           fill="none"
           stroke="#000000"
           stroke-width="1.56"
           transform="matrix(0.99536,0,0,0.99536,-15.93,323.83)"
           id="path4082" /><path
           d="m 171.2,295.83 84.2,-0.73 -9.75,9 -74.44,-8.27 z"
           fill="#6b0000"
           id="path4084" /><path
           d="m 188.01,-28.13 84.58,-0.74 -9.79,9.06 z"
           fill="none"
           stroke="#000000"
           stroke-width="1.56"
           transform="matrix(0.99536,0,0,0.99536,-15.93,323.83)"
           id="path4086" /><path
           d="m 188.01,-28.1 84.58,-0.77 -9.66,-9.51 -74.93,10.27 z"
           fill="none"
           stroke="#000000"
           stroke-width="1.56"
           transform="matrix(0.99536,0,0,0.99536,-15.93,323.83)"
           id="path4088" /><path
           d="m 339.57,294.34 -84.17,0.76 9.5,9.47 z"
           fill="#6b0000"
           id="path4090" /><path
           d="m 357.16,-29.63 -84.57,0.76 9.55,9.52 z"
           fill="none"
           stroke="#000000"
           stroke-width="1.56"
           transform="matrix(0.99536,0,0,0.99536,-15.93,323.83)"
           id="path4092" /><path
           d="m 467.76,283.88 c 6.43,-0.71 8.11,-5.85 8.46,-9.3 0.66,-6.5 -3.61,-12.23 -13.07,-13.2 -8.45,-0.84 -15.25,1.5 -16.15,10.4 -0.32,3.15 0.63,8.76 8.82,11.25 l -0.48,4.7 c -13.35,-3.36 -12.84,-14.42 -12.56,-17.13 0.82,-8.15 6.93,-15.62 20.73,-14.23 11.05,1.12 18.07,8.2 17.01,18.64 -0.93,9.26 -7.17,13.47 -13.24,13.57 z"
           fill="#ffffff"
           id="path4094" /></g></g><path
       sodipodi:type="star"
       style="display:inline;fill:#ffb86c;fill-opacity:1;fill-rule:nonzero;stroke:none;stroke-width:0.269515;stroke-linejoin:miter;stroke-miterlimit:4;stroke-dasharray:none;stroke-dashoffset:0;stroke-opacity:0.977064"
       id="path167955"
       sodipodi:sides="7"
       sodipodi:cx="75.749489"
       sodipodi:cy="236.30873"
       sodipodi:r1="3.5120513"
       sodipodi:r2="1.7560257"
       sodipodi:arg1="0.78539816"
       sodipodi:arg2="1.2341971"
       inkscape:flatsided="false"
       inkscape:rounded="0"
       inkscape:randomized="0"
       inkscape:transform-center-x="-1.0035145"
       inkscape:transform-center-y="1.0035467"
       transform="matrix(1.9962997,0,0,1.9962997,-28.667891,-316.62538)"
       d="m 78.232884,238.79213 -1.903417,-0.82592 -0.973203,1.83249 -0.541037,-2.0031 -2.039477,0.38166 1.228755,-1.67192 -1.569983,-1.35657 2.073269,-0.0817 0.08174,-2.07327 1.356569,1.56999 1.671912,-1.22876 -0.381655,2.03948 2.003099,0.54104 -1.832485,0.9732 z" /><path
       style="display:inline;fill:none;stroke:#282a36;stroke-width:0.665;stroke-linecap:butt;stroke-linejoin:miter;stroke-dasharray:none;stroke-opacity:1;marker-end:url(#marker73435)"
       d="m 132.81329,155.29234 c 9.64205,5.56684 19.28379,11.1335 28.92521,16.69998"
       id="path167957"
       inkscape:path-effect="#path-effect168367"
       inkscape:original-d="m 132.81329,155.29234 c 9.642,5.56693 19.28374,11.13359 28.92521,16.69998" /><path
       style="display:inline;fill:none;stroke:#282a36;stroke-width:0.665;stroke-linecap:butt;stroke-linejoin:miter;stroke-dasharray:none;stroke-opacity:1;marker-end:url(#marker73435)"
       d="m 112.67313,155.40691 c -9.64205,5.56684 -19.283788,11.1335 -28.925206,16.69998"
       id="path167959"
       inkscape:path-effect="#path-effect168371"
       inkscape:original-d="m 112.67313,155.40691 c -9.6421,5.56675 -19.283836,11.13342 -28.925206,16.69998" /><g
       inkscape:label=""
       transform="translate(40.381334,158.19689)"
       id="g168065"
       style="display:inline;fill:#f8f8f2;fill-opacity:1"><g
         fill="#000000"
         fill-opacity="1"
         id="g168051"
         transform="matrix(1.76389,0,0,1.76389,-162.752,-127.923)"
         style="fill:#f8f8f2;fill-opacity:1"><g
           id="g168049"
           transform="translate(94.554001,79.445)"
           style="fill:#f8f8f2;fill-opacity:1"><path
             d="M 2.5,-6.921875 1.15625,-5.5625 1.328125,-5.390625 2.5,-6.40625 3.640625,-5.390625 3.8125,-5.5625 Z m 0,0"
             id="path168047"
             style="fill:#f8f8f2;fill-opacity:1" /></g></g><g
         fill="#000000"
         fill-opacity="1"
         id="g168057"
         transform="matrix(1.76389,0,0,1.76389,-162.752,-127.923)"
         style="fill:#f8f8f2;fill-opacity:1"><g
           id="g168055"
           transform="translate(91.925003,81.962997)"
           style="fill:#f8f8f2;fill-opacity:1"><path
             d="M 1.78125,-1.140625 C 1.390625,-0.484375 1,-0.34375 0.5625,-0.3125 0.4375,-0.296875 0.34375,-0.296875 0.34375,-0.109375 0.34375,-0.046875 0.40625,0 0.484375,0 0.75,0 1.0625,-0.03125 1.328125,-0.03125 c 0.34375,0 0.6875,0.03125 1,0.03125 0.0625,0 0.1875,0 0.1875,-0.1875 0,-0.109375 -0.078125,-0.125 -0.15625,-0.125 -0.21875,-0.015625 -0.46875,-0.09375 -0.46875,-0.34375 0,-0.125 0.0625,-0.234375 0.140625,-0.375 l 0.765625,-1.265625 h 2.5 c 0.015625,0.203125 0.15625,1.5625 0.15625,1.65625 0,0.296875 -0.515625,0.328125 -0.71875,0.328125 C 4.59375,-0.3125 4.5,-0.3125 4.5,-0.109375 4.5,0 4.609375,0 4.640625,0 5.046875,0 5.46875,-0.03125 5.875,-0.03125 6.125,-0.03125 6.765625,0 7.015625,0 7.0625,0 7.1875,0 7.1875,-0.203125 7.1875,-0.3125 7.09375,-0.3125 6.953125,-0.3125 6.34375,-0.3125 6.34375,-0.375 6.3125,-0.671875 l -0.609375,-6.21875 c -0.015625,-0.203125 -0.015625,-0.25 -0.1875,-0.25 -0.15625,0 -0.203125,0.078125 -0.265625,0.171875 z M 2.984375,-2.609375 4.9375,-5.90625 5.265625,-2.609375 Z m 0,0"
             id="path168053"
             style="fill:#f8f8f2;fill-opacity:1" /></g></g><g
         fill="#000000"
         fill-opacity="1"
         id="g168063"
         transform="matrix(1.76389,0,0,1.76389,-162.752,-127.923)"
         style="fill:#f8f8f2;fill-opacity:1"><g
           id="g168061"
           transform="translate(99.397003,83.457001)"
           style="fill:#f8f8f2;fill-opacity:1"><path
             d="M 1.734375,-0.734375 C 1.671875,-0.5 1.4375,-0.125 1.078125,-0.125 c -0.015625,0 -0.234375,0 -0.375,-0.09375 0.28125,-0.09375 0.3125,-0.34375 0.3125,-0.390625 0,-0.15625 -0.125,-0.25 -0.28125,-0.25 -0.203125,0 -0.40625,0.15625 -0.40625,0.421875 0,0.34375 0.390625,0.5 0.734375,0.5 0.328125,0 0.609375,-0.1875 0.78125,-0.484375 C 2.015625,-0.0625 2.390625,0.0625 2.671875,0.0625 c 0.8125,0 1.234375,-0.859375 1.234375,-1.0625 0,-0.09375 -0.09375,-0.09375 -0.109375,-0.09375 -0.109375,0 -0.109375,0.046875 -0.140625,0.125 -0.140625,0.484375 -0.5625,0.84375 -0.953125,0.84375 -0.28125,0 -0.421875,-0.1875 -0.421875,-0.453125 0,-0.1875 0.171875,-0.8125 0.359375,-1.59375 C 2.78125,-2.703125 3.09375,-2.875 3.328125,-2.875 c 0.015625,0 0.21875,0 0.375,0.09375 -0.21875,0.0625 -0.3125,0.265625 -0.3125,0.390625 0,0.140625 0.125,0.25 0.28125,0.25 0.15625,0 0.390625,-0.125 0.390625,-0.421875 0,-0.390625 -0.453125,-0.515625 -0.71875,-0.515625 -0.359375,0 -0.640625,0.234375 -0.78125,0.5 -0.125,-0.28125 -0.453125,-0.5 -0.84375,-0.5 C 0.9375,-3.078125 0.5,-2.21875 0.5,-2 c 0,0.078125 0.09375,0.078125 0.109375,0.078125 0.09375,0 0.09375,-0.015625 0.140625,-0.109375 C 0.921875,-2.578125 1.359375,-2.875 1.703125,-2.875 1.9375,-2.875 2.125,-2.75 2.125,-2.421875 2.125,-2.28125 2.03125,-1.9375 1.96875,-1.6875 Z m 0,0"
             id="path168059"
             style="fill:#f8f8f2;fill-opacity:1" /></g></g></g><g
       inkscape:label=""
       transform="translate(186.01396,156.08068)"
       id="g168085"
       style="display:inline;fill:#f8f8f2;fill-opacity:1"><g
         fill="#000000"
         fill-opacity="1"
         id="g168071"
         transform="matrix(1.76389,0,0,1.76389,-162.89,-127.923)"
         style="fill:#f8f8f2;fill-opacity:1"><g
           id="g168069"
           transform="translate(94.292999,79.445)"
           style="fill:#f8f8f2;fill-opacity:1"><path
             d="M 2.5,-6.921875 1.15625,-5.5625 1.328125,-5.390625 2.5,-6.40625 3.640625,-5.390625 3.8125,-5.5625 Z m 0,0"
             id="path168067"
             style="fill:#f8f8f2;fill-opacity:1" /></g></g><g
         fill="#000000"
         fill-opacity="1"
         id="g168077"
         transform="matrix(1.76389,0,0,1.76389,-162.89,-127.923)"
         style="fill:#f8f8f2;fill-opacity:1"><g
           id="g168075"
           transform="translate(91.925003,81.962997)"
           style="fill:#f8f8f2;fill-opacity:1"><path
             d="M 1.59375,-0.78125 C 1.5,-0.390625 1.46875,-0.3125 0.6875,-0.3125 c -0.171875,0 -0.265625,0 -0.265625,0.203125 C 0.421875,0 0.515625,0 0.6875,0 H 4.25 C 5.828125,0 7,-1.171875 7,-2.15625 7,-2.875 6.421875,-3.453125 5.453125,-3.5625 6.484375,-3.75 7.53125,-4.484375 7.53125,-5.4375 c 0,-0.734375 -0.65625,-1.375 -1.84375,-1.375 H 2.328125 c -0.1875,0 -0.28125,0 -0.28125,0.203125 0,0.109375 0.09375,0.109375 0.28125,0.109375 0.015625,0 0.203125,0 0.375,0.015625 0.171875,0.03125 0.265625,0.03125 0.265625,0.171875 0,0.03125 -0.015625,0.0625 -0.03125,0.1875 z m 1.5,-2.875 0.625,-2.46875 C 3.8125,-6.46875 3.828125,-6.5 4.25,-6.5 h 1.296875 c 0.875,0 1.078125,0.59375 1.078125,1.03125 0,0.875 -0.859375,1.8125 -2.0625,1.8125 z m -0.4375,3.34375 c -0.140625,0 -0.15625,0 -0.21875,0 -0.109375,-0.015625 -0.140625,-0.03125 -0.140625,-0.109375 0,-0.03125 0,-0.046875 0.0625,-0.21875 l 0.6875,-2.78125 h 1.875 c 0.953125,0 1.15625,0.734375 1.15625,1.15625 C 6.078125,-1.28125 5.1875,-0.3125 4,-0.3125 Z m 0,0"
             id="path168073"
             style="fill:#f8f8f2;fill-opacity:1" /></g></g><g
         fill="#000000"
         fill-opacity="1"
         id="g168083"
         transform="matrix(1.76389,0,0,1.76389,-162.89,-127.923)"
         style="fill:#f8f8f2;fill-opacity:1"><g
           id="g168081"
           transform="translate(99.482002,83.457001)"
           style="fill:#f8f8f2;fill-opacity:1"><path
             d="M 3.875,-2.625 C 3.90625,-2.71875 3.90625,-2.734375 3.90625,-2.78125 3.90625,-2.921875 3.796875,-3 3.671875,-3 3.59375,-3 3.46875,-2.96875 3.390625,-2.84375 3.359375,-2.796875 3.3125,-2.578125 3.28125,-2.4375 L 3.125,-1.859375 c -0.03125,0.171875 -0.25,1.046875 -0.28125,1.125 0,0 -0.3125,0.609375 -0.84375,0.609375 -0.484375,0 -0.484375,-0.453125 -0.484375,-0.578125 0,-0.375 0.15625,-0.8125 0.375,-1.359375 C 1.96875,-2.28125 2,-2.359375 2,-2.484375 2,-2.8125 1.71875,-3.078125 1.34375,-3.078125 0.640625,-3.078125 0.328125,-2.125 0.328125,-2 c 0,0.078125 0.09375,0.078125 0.125,0.078125 0.09375,0 0.09375,-0.03125 0.125,-0.109375 C 0.75,-2.609375 1.046875,-2.875 1.328125,-2.875 1.4375,-2.875 1.5,-2.796875 1.5,-2.640625 c 0,0.171875 -0.0625,0.3125 -0.09375,0.40625 C 1.0625,-1.375 1,-1.125 1,-0.8125 1,-0.703125 1,-0.375 1.265625,-0.140625 1.484375,0.03125 1.78125,0.0625 1.96875,0.0625 2.25,0.0625 2.5,-0.03125 2.71875,-0.25 2.640625,0.140625 2.5625,0.4375 2.265625,0.78125 2.078125,1 1.796875,1.21875 1.421875,1.21875 c -0.046875,0 -0.375,0 -0.515625,-0.21875 0.375,-0.046875 0.375,-0.375 0.375,-0.390625 0,-0.21875 -0.203125,-0.265625 -0.265625,-0.265625 -0.171875,0 -0.40625,0.140625 -0.40625,0.46875 0,0.34375 0.328125,0.609375 0.828125,0.609375 C 2.140625,1.421875 3,0.875 3.21875,0 Z m 0,0"
             id="path168079"
             style="fill:#f8f8f2;fill-opacity:1" /></g></g></g><g
       inkscape:label=""
       transform="translate(21.549644,105.50218)"
       id="g168129"
       style="display:inline;fill:#282a36;fill-opacity:1;stroke:none"><g
         fill="#000000"
         fill-opacity="1"
         id="g168091"
         transform="matrix(1.41111,0,0,1.41111,-130.135,-105.098)"
         style="fill:#282a36;fill-opacity:1;stroke:none"><g
           id="g168089"
           transform="translate(91.925003,81.962997)"
           style="fill:#282a36;fill-opacity:1;stroke:none"><path
             d="M 3.328125,-3.015625 C 3.390625,-3.265625 3.625,-4.1875 4.3125,-4.1875 c 0.046875,0 0.296875,0 0.5,0.125 C 4.53125,-4 4.34375,-3.765625 4.34375,-3.515625 c 0,0.15625 0.109375,0.34375 0.375,0.34375 0.21875,0 0.53125,-0.171875 0.53125,-0.578125 0,-0.515625 -0.578125,-0.65625 -0.921875,-0.65625 -0.578125,0 -0.921875,0.53125 -1.046875,0.75 -0.25,-0.65625 -0.78125,-0.75 -1.078125,-0.75 -1.03125,0 -1.609375,1.28125 -1.609375,1.53125 0,0.109375 0.109375,0.109375 0.125,0.109375 0.078125,0 0.109375,-0.03125 0.125,-0.109375 0.34375,-1.0625 1,-1.3125 1.34375,-1.3125 0.1875,0 0.53125,0.09375 0.53125,0.671875 0,0.3125 -0.171875,0.96875 -0.53125,2.375 -0.15625,0.609375 -0.515625,1.03125 -0.953125,1.03125 -0.0625,0 -0.28125,0 -0.5,-0.125 0.25,-0.0625 0.46875,-0.265625 0.46875,-0.546875 0,-0.265625 -0.21875,-0.34375 -0.359375,-0.34375 -0.3125,0 -0.546875,0.25 -0.546875,0.578125 0,0.453125 0.484375,0.65625 0.921875,0.65625 0.671875,0 1.03125,-0.703125 1.046875,-0.75 0.125,0.359375 0.484375,0.75 1.078125,0.75 1.03125,0 1.59375,-1.28125 1.59375,-1.53125 0,-0.109375 -0.078125,-0.109375 -0.109375,-0.109375 -0.09375,0 -0.109375,0.046875 -0.140625,0.109375 -0.328125,1.078125 -1,1.3125 -1.3125,1.3125 -0.390625,0 -0.546875,-0.3125 -0.546875,-0.65625 0,-0.21875 0.046875,-0.4375 0.15625,-0.875 z m 0,0"
             id="path168087"
             style="fill:#282a36;fill-opacity:1;stroke:none" /></g></g><g
         fill="#000000"
         fill-opacity="1"
         id="g168097"
         transform="matrix(1.41111,0,0,1.41111,-130.135,-105.098)"
         style="fill:#282a36;fill-opacity:1;stroke:none"><g
           id="g168095"
           transform="translate(100.387,81.962997)"
           style="fill:#282a36;fill-opacity:1;stroke:none"><path
             d="m 5.46875,-2.296875 c 0.15625,0 0.34375,0 0.34375,-0.203125 0,-0.1875 -0.1875,-0.1875 -0.34375,-0.1875 H 1.234375 C 1.359375,-4.03125 2.5,-4.984375 3.90625,-4.984375 h 1.5625 c 0.15625,0 0.34375,0 0.34375,-0.203125 0,-0.203125 -0.1875,-0.203125 -0.34375,-0.203125 H 3.890625 c -1.703125,0 -3.0625,1.296875 -3.0625,2.890625 0,1.609375 1.359375,2.90625 3.0625,2.90625 H 5.46875 c 0.15625,0 0.34375,0 0.34375,-0.203125 C 5.8125,0 5.625,0 5.46875,0 H 3.90625 C 2.5,0 1.359375,-0.953125 1.234375,-2.296875 Z m 0,0"
             id="path168093"
             style="fill:#282a36;fill-opacity:1;stroke:none" /></g></g><g
         fill="#000000"
         fill-opacity="1"
         id="g168103"
         transform="matrix(1.41111,0,0,1.41111,-130.135,-105.098)"
         style="fill:#282a36;fill-opacity:1;stroke:none"><g
           id="g168101"
           transform="translate(109.79867,81.962997)"
           style="fill:#282a36;fill-opacity:1;stroke:none"><path
             d="m 2.828125,-6.15625 c 0,-0.390625 0.25,-1.03125 1.34375,-1.09375 C 4.21875,-7.265625 4.25,-7.3125 4.25,-7.359375 c 0,-0.125 -0.078125,-0.125 -0.1875,-0.125 -0.984375,0 -1.90625,0.515625 -1.90625,1.25 v 2.28125 c 0,0.390625 0,0.703125 -0.40625,1.03125 -0.34375,0.296875 -0.71875,0.3125 -0.9375,0.3125 C 0.75,-2.59375 0.71875,-2.546875 0.71875,-2.5 c 0,0.109375 0.0625,0.109375 0.15625,0.125 0.65625,0.03125 1.140625,0.390625 1.25,0.875 0.03125,0.109375 0.03125,0.140625 0.03125,0.5 v 1.96875 c 0,0.421875 0,0.734375 0.46875,1.109375 C 3.015625,2.375 3.671875,2.5 4.0625,2.5 4.171875,2.5 4.25,2.5 4.25,2.375 4.25,2.28125 4.203125,2.28125 4.09375,2.265625 3.46875,2.234375 2.984375,1.90625 2.84375,1.40625 2.828125,1.3125 2.828125,1.296875 2.828125,0.9375 v -2.09375 c 0,-0.453125 -0.09375,-0.625 -0.40625,-0.953125 C 2.21875,-2.3125 1.921875,-2.40625 1.640625,-2.5 c 0.828125,-0.21875 1.1875,-0.6875 1.1875,-1.265625 z m 0,0"
             id="path168099"
             style="fill:#282a36;fill-opacity:1;stroke:none" /></g></g><g
         fill="#000000"
         fill-opacity="1"
         id="g168109"
         transform="matrix(1.41111,0,0,1.41111,-130.135,-105.098)"
         style="fill:#282a36;fill-opacity:1;stroke:none"><g
           id="g168107"
           transform="translate(114.777,81.962997)"
           style="fill:#282a36;fill-opacity:1;stroke:none"><path
             d="m 4.578125,-3.1875 c 0,-0.796875 -0.046875,-1.59375 -0.390625,-2.328125 -0.453125,-0.96875 -1.28125,-1.125 -1.6875,-1.125 -0.609375,0 -1.328125,0.265625 -1.75,1.1875 -0.3125,0.6875 -0.359375,1.46875 -0.359375,2.265625 0,0.75 0.03125,1.640625 0.453125,2.40625 0.421875,0.796875 1.15625,1 1.640625,1 0.53125,0 1.296875,-0.203125 1.734375,-1.15625 0.3125,-0.6875 0.359375,-1.46875 0.359375,-2.25 z M 2.484375,0 C 2.09375,0 1.5,-0.25 1.328125,-1.203125 1.21875,-1.796875 1.21875,-2.71875 1.21875,-3.3125 c 0,-0.640625 0,-1.296875 0.078125,-1.828125 0.1875,-1.1875 0.9375,-1.28125 1.1875,-1.28125 0.328125,0 0.984375,0.1875 1.171875,1.171875 0.109375,0.5625 0.109375,1.3125 0.109375,1.9375 0,0.75 0,1.421875 -0.109375,2.0625 C 3.5,-0.296875 2.9375,0 2.484375,0 Z m 0,0"
             id="path168105"
             style="fill:#282a36;fill-opacity:1;stroke:none" /></g></g><g
         fill="#000000"
         fill-opacity="1"
         id="g168115"
         transform="matrix(1.41111,0,0,1.41111,-130.135,-105.098)"
         style="fill:#282a36;fill-opacity:1;stroke:none"><g
           id="g168113"
           transform="translate(119.758,81.962997)"
           style="fill:#282a36;fill-opacity:1;stroke:none"><path
             d="m 2.03125,-0.015625 c 0,-0.65625 -0.25,-1.046875 -0.640625,-1.046875 -0.328125,0 -0.53125,0.25 -0.53125,0.53125 C 0.859375,-0.265625 1.0625,0 1.390625,0 1.5,0 1.640625,-0.046875 1.734375,-0.125 1.765625,-0.15625 1.78125,-0.15625 1.78125,-0.15625 c 0.015625,0 0.015625,0 0.015625,0.140625 0,0.75 -0.34375,1.34375 -0.671875,1.671875 -0.109375,0.109375 -0.109375,0.125 -0.109375,0.15625 0,0.078125 0.046875,0.109375 0.09375,0.109375 0.109375,0 0.921875,-0.765625 0.921875,-1.9375 z m 0,0"
             id="path168111"
             style="fill:#282a36;fill-opacity:1;stroke:none" /></g></g><g
         fill="#000000"
         fill-opacity="1"
         id="g168121"
         transform="matrix(1.41111,0,0,1.41111,-130.135,-105.098)"
         style="fill:#282a36;fill-opacity:1;stroke:none"><g
           id="g168119"
           transform="translate(124.186,81.962997)"
           style="fill:#282a36;fill-opacity:1;stroke:none"><path
             d="m 2.9375,-6.375 c 0,-0.25 0,-0.265625 -0.234375,-0.265625 C 2.078125,-6 1.203125,-6 0.890625,-6 v 0.3125 c 0.203125,0 0.78125,0 1.296875,-0.265625 v 5.171875 c 0,0.359375 -0.03125,0.46875 -0.921875,0.46875 h -0.3125 V 0 c 0.34375,-0.03125 1.203125,-0.03125 1.609375,-0.03125 0.390625,0 1.265625,0 1.609375,0.03125 v -0.3125 h -0.3125 c -0.90625,0 -0.921875,-0.109375 -0.921875,-0.46875 z m 0,0"
             id="path168117"
             style="fill:#282a36;fill-opacity:1;stroke:none" /></g></g><g
         fill="#000000"
         fill-opacity="1"
         id="g168127"
         transform="matrix(1.41111,0,0,1.41111,-130.135,-105.098)"
         style="fill:#282a36;fill-opacity:1;stroke:none"><g
           id="g168125"
           transform="translate(129.16701,81.962997)"
           style="fill:#282a36;fill-opacity:1;stroke:none"><path
             d="m 2.15625,1.171875 c 0,0.390625 -0.265625,1.03125 -1.34375,1.09375 C 0.75,2.28125 0.71875,2.328125 0.71875,2.375 0.71875,2.5 0.828125,2.5 0.921875,2.5 1.890625,2.5 2.8125,2 2.828125,1.25 v -2.28125 c 0,-0.390625 0,-0.703125 0.390625,-1.03125 C 3.5625,-2.359375 3.953125,-2.375 4.171875,-2.375 4.21875,-2.390625 4.25,-2.4375 4.25,-2.5 4.25,-2.59375 4.203125,-2.59375 4.09375,-2.609375 3.4375,-2.640625 2.953125,-3 2.84375,-3.484375 2.828125,-3.59375 2.828125,-3.625 2.828125,-3.984375 v -1.96875 c 0,-0.421875 0,-0.734375 -0.484375,-1.109375 C 1.9375,-7.375 1.25,-7.484375 0.921875,-7.484375 c -0.09375,0 -0.203125,0 -0.203125,0.125 0,0.09375 0.0625,0.09375 0.15625,0.109375 0.625,0.03125 1.125,0.359375 1.25,0.859375 0.03125,0.09375 0.03125,0.109375 0.03125,0.46875 v 2.09375 c 0,0.453125 0.078125,0.625 0.390625,0.953125 0.21875,0.203125 0.5,0.296875 0.78125,0.375 -0.8125,0.234375 -1.171875,0.703125 -1.171875,1.28125 z m 0,0"
             id="path168123"
             style="fill:#282a36;fill-opacity:1;stroke:none" /></g></g></g><g
       inkscape:label=""
       transform="translate(160.78527,105.50218)"
       id="g168185"
       style="display:inline;fill:#282a36;fill-opacity:1;stroke:none"><g
         fill="#000000"
         fill-opacity="1"
         id="g168135"
         transform="matrix(1.41111,0,0,1.41111,-130.135,-105.098)"
         style="fill:#282a36;fill-opacity:1;stroke:none"><g
           id="g168133"
           transform="translate(91.925003,81.962997)"
           style="fill:#282a36;fill-opacity:1;stroke:none"><path
             d="m 4.84375,-3.796875 c 0.046875,-0.140625 0.046875,-0.15625 0.046875,-0.234375 0,-0.171875 -0.140625,-0.265625 -0.296875,-0.265625 -0.09375,0 -0.25,0.0625 -0.34375,0.203125 -0.015625,0.0625 -0.109375,0.359375 -0.140625,0.546875 -0.078125,0.25 -0.140625,0.53125 -0.203125,0.796875 l -0.453125,1.796875 c -0.03125,0.140625 -0.46875,0.84375 -1.125,0.84375 -0.5,0 -0.609375,-0.4375 -0.609375,-0.8125 C 1.71875,-1.375 1.890625,-2 2.21875,-2.875 2.375,-3.28125 2.421875,-3.390625 2.421875,-3.59375 c 0,-0.4375 -0.3125,-0.8125 -0.8125,-0.8125 -0.953125,0 -1.3125,1.453125 -1.3125,1.53125 0,0.109375 0.09375,0.109375 0.109375,0.109375 0.109375,0 0.109375,-0.03125 0.15625,-0.1875 0.28125,-0.9375 0.671875,-1.234375 1.015625,-1.234375 0.078125,0 0.25,0 0.25,0.3125 0,0.25 -0.109375,0.515625 -0.171875,0.703125 -0.40625,1.0625 -0.578125,1.625 -0.578125,2.09375 0,0.890625 0.625,1.1875 1.21875,1.1875 0.390625,0 0.71875,-0.171875 1,-0.453125 -0.125,0.515625 -0.25,1.015625 -0.640625,1.546875 -0.265625,0.328125 -0.640625,0.625 -1.09375,0.625 -0.140625,0 -0.59375,-0.03125 -0.765625,-0.421875 0.15625,0 0.296875,0 0.421875,-0.125 C 1.328125,1.203125 1.421875,1.0625 1.421875,0.875 1.421875,0.5625 1.15625,0.53125 1.0625,0.53125 0.828125,0.53125 0.5,0.6875 0.5,1.171875 c 0,0.5 0.4375,0.875 1.0625,0.875 1.015625,0 2.046875,-0.90625 2.328125,-2.03125 z m 0,0"
             id="path168131"
             style="fill:#282a36;fill-opacity:1;stroke:none" /></g></g><g
         fill="#000000"
         fill-opacity="1"
         id="g168141"
         transform="matrix(1.41111,0,0,1.41111,-130.135,-105.098)"
         style="fill:#282a36;fill-opacity:1;stroke:none"><g
           id="g168139"
           transform="translate(99.934998,81.962997)"
           style="fill:#282a36;fill-opacity:1;stroke:none"><path
             d="m 5.46875,-2.296875 c 0.15625,0 0.34375,0 0.34375,-0.203125 0,-0.1875 -0.1875,-0.1875 -0.34375,-0.1875 H 1.234375 C 1.359375,-4.03125 2.5,-4.984375 3.90625,-4.984375 h 1.5625 c 0.15625,0 0.34375,0 0.34375,-0.203125 0,-0.203125 -0.1875,-0.203125 -0.34375,-0.203125 H 3.890625 c -1.703125,0 -3.0625,1.296875 -3.0625,2.890625 0,1.609375 1.359375,2.90625 3.0625,2.90625 H 5.46875 c 0.15625,0 0.34375,0 0.34375,-0.203125 C 5.8125,0 5.625,0 5.46875,0 H 3.90625 C 2.5,0 1.359375,-0.953125 1.234375,-2.296875 Z m 0,0"
             id="path168137"
             style="fill:#282a36;fill-opacity:1;stroke:none" /></g></g><g
         fill="#000000"
         fill-opacity="1"
         id="g168147"
         transform="matrix(1.41111,0,0,1.41111,-130.135,-105.098)"
         style="fill:#282a36;fill-opacity:1;stroke:none"><g
           id="g168145"
           transform="translate(109.34666,81.962997)"
           style="fill:#282a36;fill-opacity:1;stroke:none"><path
             d="m 2.828125,-6.15625 c 0,-0.390625 0.25,-1.03125 1.34375,-1.09375 C 4.21875,-7.265625 4.25,-7.3125 4.25,-7.359375 c 0,-0.125 -0.078125,-0.125 -0.1875,-0.125 -0.984375,0 -1.90625,0.515625 -1.90625,1.25 v 2.28125 c 0,0.390625 0,0.703125 -0.40625,1.03125 -0.34375,0.296875 -0.71875,0.3125 -0.9375,0.3125 C 0.75,-2.59375 0.71875,-2.546875 0.71875,-2.5 c 0,0.109375 0.0625,0.109375 0.15625,0.125 0.65625,0.03125 1.140625,0.390625 1.25,0.875 0.03125,0.109375 0.03125,0.140625 0.03125,0.5 v 1.96875 c 0,0.421875 0,0.734375 0.46875,1.109375 C 3.015625,2.375 3.671875,2.5 4.0625,2.5 4.171875,2.5 4.25,2.5 4.25,2.375 4.25,2.28125 4.203125,2.28125 4.09375,2.265625 3.46875,2.234375 2.984375,1.90625 2.84375,1.40625 2.828125,1.3125 2.828125,1.296875 2.828125,0.9375 v -2.09375 c 0,-0.453125 -0.09375,-0.625 -0.40625,-0.953125 C 2.21875,-2.3125 1.921875,-2.40625 1.640625,-2.5 c 0.828125,-0.21875 1.1875,-0.6875 1.1875,-1.265625 z m 0,0"
             id="path168143"
             style="fill:#282a36;fill-opacity:1;stroke:none" /></g></g><g
         fill="#000000"
         fill-opacity="1"
         id="g168153"
         transform="matrix(1.41111,0,0,1.41111,-130.135,-105.098)"
         style="fill:#282a36;fill-opacity:1;stroke:none"><g
           id="g168151"
           transform="translate(114.325,81.962997)"
           style="fill:#282a36;fill-opacity:1;stroke:none"><path
             d="m 4.578125,-3.1875 c 0,-0.796875 -0.046875,-1.59375 -0.390625,-2.328125 -0.453125,-0.96875 -1.28125,-1.125 -1.6875,-1.125 -0.609375,0 -1.328125,0.265625 -1.75,1.1875 -0.3125,0.6875 -0.359375,1.46875 -0.359375,2.265625 0,0.75 0.03125,1.640625 0.453125,2.40625 0.421875,0.796875 1.15625,1 1.640625,1 0.53125,0 1.296875,-0.203125 1.734375,-1.15625 0.3125,-0.6875 0.359375,-1.46875 0.359375,-2.25 z M 2.484375,0 C 2.09375,0 1.5,-0.25 1.328125,-1.203125 1.21875,-1.796875 1.21875,-2.71875 1.21875,-3.3125 c 0,-0.640625 0,-1.296875 0.078125,-1.828125 0.1875,-1.1875 0.9375,-1.28125 1.1875,-1.28125 0.328125,0 0.984375,0.1875 1.171875,1.171875 0.109375,0.5625 0.109375,1.3125 0.109375,1.9375 0,0.75 0,1.421875 -0.109375,2.0625 C 3.5,-0.296875 2.9375,0 2.484375,0 Z m 0,0"
             id="path168149"
             style="fill:#282a36;fill-opacity:1;stroke:none" /></g></g><g
         fill="#000000"
         fill-opacity="1"
         id="g168159"
         transform="matrix(1.41111,0,0,1.41111,-130.135,-105.098)"
         style="fill:#282a36;fill-opacity:1;stroke:none"><g
           id="g168157"
           transform="translate(119.306,81.962997)"
           style="fill:#282a36;fill-opacity:1;stroke:none"><path
             d="m 2.03125,-0.015625 c 0,-0.65625 -0.25,-1.046875 -0.640625,-1.046875 -0.328125,0 -0.53125,0.25 -0.53125,0.53125 C 0.859375,-0.265625 1.0625,0 1.390625,0 1.5,0 1.640625,-0.046875 1.734375,-0.125 1.765625,-0.15625 1.78125,-0.15625 1.78125,-0.15625 c 0.015625,0 0.015625,0 0.015625,0.140625 0,0.75 -0.34375,1.34375 -0.671875,1.671875 -0.109375,0.109375 -0.109375,0.125 -0.109375,0.15625 0,0.078125 0.046875,0.109375 0.09375,0.109375 0.109375,0 0.921875,-0.765625 0.921875,-1.9375 z m 0,0"
             id="path168155"
             style="fill:#282a36;fill-opacity:1;stroke:none" /></g></g><g
         fill="#000000"
         fill-opacity="1"
         id="g168165"
         transform="matrix(1.41111,0,0,1.41111,-130.135,-105.098)"
         style="fill:#282a36;fill-opacity:1;stroke:none"><g
           id="g168163"
           transform="translate(123.734,81.962997)"
           style="fill:#282a36;fill-opacity:1;stroke:none"><path
             d="m 2.9375,-6.375 c 0,-0.25 0,-0.265625 -0.234375,-0.265625 C 2.078125,-6 1.203125,-6 0.890625,-6 v 0.3125 c 0.203125,0 0.78125,0 1.296875,-0.265625 v 5.171875 c 0,0.359375 -0.03125,0.46875 -0.921875,0.46875 h -0.3125 V 0 c 0.34375,-0.03125 1.203125,-0.03125 1.609375,-0.03125 0.390625,0 1.265625,0 1.609375,0.03125 v -0.3125 h -0.3125 c -0.90625,0 -0.921875,-0.109375 -0.921875,-0.46875 z m 0,0"
             id="path168161"
             style="fill:#282a36;fill-opacity:1;stroke:none" /></g></g><g
         fill="#000000"
         fill-opacity="1"
         id="g168171"
         transform="matrix(1.41111,0,0,1.41111,-130.135,-105.098)"
         style="fill:#282a36;fill-opacity:1;stroke:none"><g
           id="g168169"
           transform="translate(128.715,81.962997)"
           style="fill:#282a36;fill-opacity:1;stroke:none"><path
             d="m 2.03125,-0.015625 c 0,-0.65625 -0.25,-1.046875 -0.640625,-1.046875 -0.328125,0 -0.53125,0.25 -0.53125,0.53125 C 0.859375,-0.265625 1.0625,0 1.390625,0 1.5,0 1.640625,-0.046875 1.734375,-0.125 1.765625,-0.15625 1.78125,-0.15625 1.78125,-0.15625 c 0.015625,0 0.015625,0 0.015625,0.140625 0,0.75 -0.34375,1.34375 -0.671875,1.671875 -0.109375,0.109375 -0.109375,0.125 -0.109375,0.15625 0,0.078125 0.046875,0.109375 0.09375,0.109375 0.109375,0 0.921875,-0.765625 0.921875,-1.9375 z m 0,0"
             id="path168167"
             style="fill:#282a36;fill-opacity:1;stroke:none" /></g></g><g
         fill="#000000"
         fill-opacity="1"
         id="g168177"
         transform="matrix(1.41111,0,0,1.41111,-130.135,-105.098)"
         style="fill:#282a36;fill-opacity:1;stroke:none"><g
           id="g168175"
           transform="translate(133.14301,81.962997)"
           style="fill:#282a36;fill-opacity:1;stroke:none"><path
             d="m 1.265625,-0.765625 1.0625,-1.03125 c 1.546875,-1.375 2.140625,-1.90625 2.140625,-2.90625 0,-1.140625 -0.890625,-1.9375 -2.109375,-1.9375 -1.125,0 -1.859375,0.921875 -1.859375,1.8125 0,0.546875 0.5,0.546875 0.53125,0.546875 0.171875,0 0.515625,-0.109375 0.515625,-0.53125 0,-0.25 -0.1875,-0.515625 -0.53125,-0.515625 -0.078125,0 -0.09375,0 -0.125,0.015625 0.21875,-0.65625 0.765625,-1.015625 1.34375,-1.015625 0.90625,0 1.328125,0.8125 1.328125,1.625 C 3.5625,-3.90625 3.078125,-3.125 2.515625,-2.5 l -1.90625,2.125 C 0.5,-0.265625 0.5,-0.234375 0.5,0 H 4.203125 L 4.46875,-1.734375 H 4.234375 C 4.171875,-1.4375 4.109375,-1 4,-0.84375 3.9375,-0.765625 3.28125,-0.765625 3.0625,-0.765625 Z m 0,0"
             id="path168173"
             style="fill:#282a36;fill-opacity:1;stroke:none" /></g></g><g
         fill="#000000"
         fill-opacity="1"
         id="g168183"
         transform="matrix(1.41111,0,0,1.41111,-130.135,-105.098)"
         style="fill:#282a36;fill-opacity:1;stroke:none"><g
           id="g168181"
           transform="translate(138.125,81.962997)"
           style="fill:#282a36;fill-opacity:1;stroke:none"><path
             d="m 2.15625,1.171875 c 0,0.390625 -0.265625,1.03125 -1.34375,1.09375 C 0.75,2.28125 0.71875,2.328125 0.71875,2.375 0.71875,2.5 0.828125,2.5 0.921875,2.5 1.890625,2.5 2.8125,2 2.828125,1.25 v -2.28125 c 0,-0.390625 0,-0.703125 0.390625,-1.03125 C 3.5625,-2.359375 3.953125,-2.375 4.171875,-2.375 4.21875,-2.390625 4.25,-2.4375 4.25,-2.5 4.25,-2.59375 4.203125,-2.59375 4.09375,-2.609375 3.4375,-2.640625 2.953125,-3 2.84375,-3.484375 2.828125,-3.59375 2.828125,-3.625 2.828125,-3.984375 v -1.96875 c 0,-0.421875 0,-0.734375 -0.484375,-1.109375 C 1.9375,-7.375 1.25,-7.484375 0.921875,-7.484375 c -0.09375,0 -0.203125,0 -0.203125,0.125 0,0.09375 0.0625,0.09375 0.15625,0.109375 0.625,0.03125 1.125,0.359375 1.25,0.859375 0.03125,0.09375 0.03125,0.109375 0.03125,0.46875 v 2.09375 c 0,0.453125 0.078125,0.625 0.390625,0.953125 0.21875,0.203125 0.5,0.296875 0.78125,0.375 -0.8125,0.234375 -1.171875,0.703125 -1.171875,1.28125 z m 0,0"
             id="path168179"
             style="fill:#282a36;fill-opacity:1;stroke:none" /></g></g></g><path
       style="display:inline;fill:#282a36;stroke:#282a36;stroke-width:0.665;stroke-linecap:butt;stroke-linejoin:miter;stroke-dasharray:none;stroke-opacity:1;marker-end:url(#marker73603)"
       d="m 195.75158,123.19941 c 0,4.12047 0,8.21817 0,12.32685"
       id="path168287"
       inkscape:path-effect="#path-effect168375"
       inkscape:original-d="m 195.75158,123.19941 c 2.6e-4,4.12047 2.6e-4,8.21817 0,12.32685" /><path
       style="display:inline;fill:#282a36;stroke:#282a36;stroke-width:0.665;stroke-linecap:butt;stroke-linejoin:miter;stroke-dasharray:none;stroke-opacity:1;marker-end:url(#marker73603)"
       d="m 195.75158,194.16389 c 0,4.12047 0,8.21817 0,12.32685"
       id="path168289"
       inkscape:path-effect="#path-effect168379"
       inkscape:original-d="m 195.75158,194.16389 c 2.6e-4,4.12047 2.6e-4,8.21817 0,12.32685" /><path
       style="display:inline;fill:#282a36;stroke:#282a36;stroke-width:0.665;stroke-linecap:butt;stroke-linejoin:miter;stroke-dasharray:none;stroke-opacity:1;marker-end:url(#marker73603)"
       d="m 50.250894,193.67198 c 0,4.12047 0,8.21817 0,12.32685"
       id="path168291"
       inkscape:path-effect="#path-effect168383"
       inkscape:original-d="m 50.250894,193.67198 c 2.6e-4,4.12047 2.6e-4,8.21817 0,12.32685" /><path
       style="display:inline;fill:#282a36;stroke:#282a36;stroke-width:0.665;stroke-linecap:butt;stroke-linejoin:miter;stroke-dasharray:none;stroke-opacity:1;marker-end:url(#marker73603)"
       d="m 50.250894,123.19941 c 0,4.12047 0,8.21817 0,12.32685"
       id="path168293"
       inkscape:path-effect="#path-effect168387"
       inkscape:original-d="m 50.250894,123.19941 c 2.6e-4,4.12047 2.6e-4,8.21817 0,12.32685" /><text
       xml:space="preserve"
       transform="matrix(0.26458333,0,0,0.26458333,-9.254319,63.299645)"
       id="text25389"
       style="font-size:40px;line-height:1.25;font-family:sans-serif;-inkscape-font-specification:'sans-serif, Normal';letter-spacing:0px;word-spacing:0px;white-space:pre;shape-inside:url(#rect25391);display:inline" /><g
       inkscape:label=""
       transform="translate(42.354841,213.18683)"
       id="g28529"><g
         fill="#000000"
         fill-opacity="1"
         id="g16"
         transform="matrix(1.41111,0,0,1.41111,-130.201,-105.583)"><g
           id="use14"
           transform="translate(91.925003,81.962997)"><path
             d="M 1.78125,-1.140625 C 1.390625,-0.484375 1,-0.34375 0.5625,-0.3125 0.4375,-0.296875 0.34375,-0.296875 0.34375,-0.109375 0.34375,-0.046875 0.40625,0 0.484375,0 0.75,0 1.0625,-0.03125 1.328125,-0.03125 c 0.34375,0 0.6875,0.03125 1,0.03125 0.0625,0 0.1875,0 0.1875,-0.1875 0,-0.109375 -0.078125,-0.125 -0.15625,-0.125 -0.21875,-0.015625 -0.46875,-0.09375 -0.46875,-0.34375 0,-0.125 0.0625,-0.234375 0.140625,-0.375 l 0.765625,-1.265625 h 2.5 c 0.015625,0.203125 0.15625,1.5625 0.15625,1.65625 0,0.296875 -0.515625,0.328125 -0.71875,0.328125 C 4.59375,-0.3125 4.5,-0.3125 4.5,-0.109375 4.5,0 4.609375,0 4.640625,0 5.046875,0 5.46875,-0.03125 5.875,-0.03125 6.125,-0.03125 6.765625,0 7.015625,0 7.0625,0 7.1875,0 7.1875,-0.203125 7.1875,-0.3125 7.09375,-0.3125 6.953125,-0.3125 6.34375,-0.3125 6.34375,-0.375 6.3125,-0.671875 l -0.609375,-6.21875 c -0.015625,-0.203125 -0.015625,-0.25 -0.1875,-0.25 -0.15625,0 -0.203125,0.078125 -0.265625,0.171875 z M 2.984375,-2.609375 4.9375,-5.90625 5.265625,-2.609375 Z m 0,0"
             id="path26" /></g></g><g
         fill="#000000"
         fill-opacity="1"
         id="g20"
         transform="matrix(1.41111,0,0,1.41111,-130.201,-105.583)"><g
           id="use18"
           transform="translate(99.397003,83.457001)"><path
             d="M 1.734375,-0.734375 C 1.671875,-0.5 1.4375,-0.125 1.078125,-0.125 c -0.015625,0 -0.234375,0 -0.375,-0.09375 0.28125,-0.09375 0.3125,-0.34375 0.3125,-0.390625 0,-0.15625 -0.125,-0.25 -0.28125,-0.25 -0.203125,0 -0.40625,0.15625 -0.40625,0.421875 0,0.34375 0.390625,0.5 0.734375,0.5 0.328125,0 0.609375,-0.1875 0.78125,-0.484375 C 2.015625,-0.0625 2.390625,0.0625 2.671875,0.0625 c 0.8125,0 1.234375,-0.859375 1.234375,-1.0625 0,-0.09375 -0.09375,-0.09375 -0.109375,-0.09375 -0.109375,0 -0.109375,0.046875 -0.140625,0.125 -0.140625,0.484375 -0.5625,0.84375 -0.953125,0.84375 -0.28125,0 -0.421875,-0.1875 -0.421875,-0.453125 0,-0.1875 0.171875,-0.8125 0.359375,-1.59375 C 2.78125,-2.703125 3.09375,-2.875 3.328125,-2.875 c 0.015625,0 0.21875,0 0.375,0.09375 -0.21875,0.0625 -0.3125,0.265625 -0.3125,0.390625 0,0.140625 0.125,0.25 0.28125,0.25 0.15625,0 0.390625,-0.125 0.390625,-0.421875 0,-0.390625 -0.453125,-0.515625 -0.71875,-0.515625 -0.359375,0 -0.640625,0.234375 -0.78125,0.5 -0.125,-0.28125 -0.453125,-0.5 -0.84375,-0.5 C 0.9375,-3.078125 0.5,-2.21875 0.5,-2 c 0,0.078125 0.09375,0.078125 0.109375,0.078125 0.09375,0 0.09375,-0.015625 0.140625,-0.109375 C 0.921875,-2.578125 1.359375,-2.875 1.703125,-2.875 1.9375,-2.875 2.125,-2.75 2.125,-2.421875 2.125,-2.28125 2.03125,-1.9375 1.96875,-1.6875 Z m 0,0"
             id="path30" /></g></g></g><g
       inkscape:label=""
       transform="translate(187.96168,212.45921)"
       id="g29176"><g
         fill="#000000"
         fill-opacity="1"
         id="g29168"
         transform="matrix(1.41111,0,0,1.41111,-130.312,-106.046)"><g
           id="g29166"
           transform="translate(91.925003,81.962997)"><path
             d="M 1.59375,-0.78125 C 1.5,-0.390625 1.46875,-0.3125 0.6875,-0.3125 c -0.171875,0 -0.265625,0 -0.265625,0.203125 C 0.421875,0 0.515625,0 0.6875,0 H 4.25 C 5.828125,0 7,-1.171875 7,-2.15625 7,-2.875 6.421875,-3.453125 5.453125,-3.5625 6.484375,-3.75 7.53125,-4.484375 7.53125,-5.4375 c 0,-0.734375 -0.65625,-1.375 -1.84375,-1.375 H 2.328125 c -0.1875,0 -0.28125,0 -0.28125,0.203125 0,0.109375 0.09375,0.109375 0.28125,0.109375 0.015625,0 0.203125,0 0.375,0.015625 0.171875,0.03125 0.265625,0.03125 0.265625,0.171875 0,0.03125 -0.015625,0.0625 -0.03125,0.1875 z m 1.5,-2.875 0.625,-2.46875 C 3.8125,-6.46875 3.828125,-6.5 4.25,-6.5 h 1.296875 c 0.875,0 1.078125,0.59375 1.078125,1.03125 0,0.875 -0.859375,1.8125 -2.0625,1.8125 z m -0.4375,3.34375 c -0.140625,0 -0.15625,0 -0.21875,0 -0.109375,-0.015625 -0.140625,-0.03125 -0.140625,-0.109375 0,-0.03125 0,-0.046875 0.0625,-0.21875 l 0.6875,-2.78125 h 1.875 c 0.953125,0 1.15625,0.734375 1.15625,1.15625 C 6.078125,-1.28125 5.1875,-0.3125 4,-0.3125 Z m 0,0"
             id="path29164" /></g></g><g
         fill="#000000"
         fill-opacity="1"
         id="g29174"
         transform="matrix(1.41111,0,0,1.41111,-130.312,-106.046)"><g
           id="g29172"
           transform="translate(99.482002,83.457001)"><path
             d="M 3.875,-2.625 C 3.90625,-2.71875 3.90625,-2.734375 3.90625,-2.78125 3.90625,-2.921875 3.796875,-3 3.671875,-3 3.59375,-3 3.46875,-2.96875 3.390625,-2.84375 3.359375,-2.796875 3.3125,-2.578125 3.28125,-2.4375 L 3.125,-1.859375 c -0.03125,0.171875 -0.25,1.046875 -0.28125,1.125 0,0 -0.3125,0.609375 -0.84375,0.609375 -0.484375,0 -0.484375,-0.453125 -0.484375,-0.578125 0,-0.375 0.15625,-0.8125 0.375,-1.359375 C 1.96875,-2.28125 2,-2.359375 2,-2.484375 2,-2.8125 1.71875,-3.078125 1.34375,-3.078125 0.640625,-3.078125 0.328125,-2.125 0.328125,-2 c 0,0.078125 0.09375,0.078125 0.125,0.078125 0.09375,0 0.09375,-0.03125 0.125,-0.109375 C 0.75,-2.609375 1.046875,-2.875 1.328125,-2.875 1.4375,-2.875 1.5,-2.796875 1.5,-2.640625 c 0,0.171875 -0.0625,0.3125 -0.09375,0.40625 C 1.0625,-1.375 1,-1.125 1,-0.8125 1,-0.703125 1,-0.375 1.265625,-0.140625 1.484375,0.03125 1.78125,0.0625 1.96875,0.0625 2.25,0.0625 2.5,-0.03125 2.71875,-0.25 2.640625,0.140625 2.5625,0.4375 2.265625,0.78125 2.078125,1 1.796875,1.21875 1.421875,1.21875 c -0.046875,0 -0.375,0 -0.515625,-0.21875 0.375,-0.046875 0.375,-0.375 0.375,-0.390625 0,-0.21875 -0.203125,-0.265625 -0.265625,-0.265625 -0.171875,0 -0.40625,0.140625 -0.40625,0.46875 0,0.34375 0.328125,0.609375 0.828125,0.609375 C 2.140625,1.421875 3,0.875 3.21875,0 Z m 0,0"
             id="path29170" /></g></g></g></g></svg>
