<?xml version="1.0" encoding="UTF-8" standalone="no"?>
<!-- Created with Inkscape (http://www.inkscape.org/) -->

<svg
   width="213.8595mm"
   height="45.769402mm"
   viewBox="0 0 213.8595 45.769402"
   version="1.1"
   id="svg5"
   inkscape:version="1.2.2 (b0a8486541, 2022-12-01)"
   sodipodi:docname="spdc.svg"
   inkscape:export-filename="spdc.pdf"
   inkscape:export-xdpi="58.04"
   inkscape:export-ydpi="58.04"
   xmlns:inkscape="http://www.inkscape.org/namespaces/inkscape"
   xmlns:sodipodi="http://sodipodi.sourceforge.net/DTD/sodipodi-0.dtd"
   xmlns="http://www.w3.org/2000/svg"
   xmlns:svg="http://www.w3.org/2000/svg">
  <sodipodi:namedview
     id="namedview7"
     pagecolor="#ffffff"
     bordercolor="#666666"
     borderopacity="1.0"
     inkscape:showpageshadow="2"
     inkscape:pageopacity="0.0"
     inkscape:pagecheckerboard="0"
     inkscape:deskcolor="#d1d1d1"
     inkscape:document-units="mm"
     showgrid="false"
     inkscape:zoom="1.1893044"
     inkscape:cx="482.63506"
     inkscape:cy="79.037797"
     inkscape:window-width="2520"
     inkscape:window-height="1373"
     inkscape:window-x="0"
     inkscape:window-y="0"
     inkscape:window-maximized="1"
     inkscape:current-layer="layer1" />
  <defs
     id="defs2">
    <inkscape:path-effect
       effect="bspline"
       id="path-effect2110"
       is_visible="true"
       lpeversion="1"
       weight="33.333333"
       steps="2"
       helper_size="0"
       apply_no_weight="true"
       apply_with_weight="true"
       only_selected="false" />
    <inkscape:path-effect
       effect="bspline"
       id="path-effect2106"
       is_visible="true"
       lpeversion="1"
       weight="33.333333"
       steps="2"
       helper_size="0"
       apply_no_weight="true"
       apply_with_weight="true"
       only_selected="false" />
    <inkscape:path-effect
       effect="bspline"
       id="path-effect2102"
       is_visible="true"
       lpeversion="1"
       weight="33.333333"
       steps="2"
       helper_size="0"
       apply_no_weight="true"
       apply_with_weight="true"
       only_selected="false" />
    <inkscape:path-effect
       effect="bspline"
       id="path-effect2098"
       is_visible="true"
       lpeversion="1"
       weight="33.333333"
       steps="2"
       helper_size="0"
       apply_no_weight="true"
       apply_with_weight="true"
       only_selected="false" />
    <inkscape:path-effect
       effect="bspline"
       id="path-effect2066"
       is_visible="true"
       lpeversion="1"
       weight="33.333333"
       steps="2"
       helper_size="0"
       apply_no_weight="true"
       apply_with_weight="true"
       only_selected="false" />
    <inkscape:path-effect
       effect="bspline"
       id="path-effect2062"
       is_visible="true"
       lpeversion="1"
       weight="33.333333"
       steps="2"
       helper_size="0"
       apply_no_weight="true"
       apply_with_weight="true"
       only_selected="false" />
    <inkscape:path-effect
       effect="bspline"
       id="path-effect2058"
       is_visible="true"
       lpeversion="1"
       weight="33.333333"
       steps="2"
       helper_size="0"
       apply_no_weight="true"
       apply_with_weight="true"
       only_selected="false" />
    <inkscape:path-effect
       effect="bspline"
       id="path-effect1211"
       is_visible="true"
       lpeversion="1"
       weight="33.333333"
       steps="2"
       helper_size="0"
       apply_no_weight="true"
       apply_with_weight="true"
       only_selected="false" />
    <inkscape:path-effect
       effect="bspline"
       id="path-effect1145"
       is_visible="true"
       lpeversion="1"
       weight="33.333333"
       steps="2"
       helper_size="0"
       apply_no_weight="true"
       apply_with_weight="true"
       only_selected="false" />
    <inkscape:path-effect
       effect="bspline"
       id="path-effect416"
       is_visible="true"
       lpeversion="1"
       weight="33.333333"
       steps="2"
       helper_size="0"
       apply_no_weight="true"
       apply_with_weight="true"
       only_selected="false" />
    <inkscape:path-effect
       effect="bspline"
       id="path-effect412"
       is_visible="true"
       lpeversion="1"
       weight="33.333333"
       steps="2"
       helper_size="0"
       apply_no_weight="true"
       apply_with_weight="true"
       only_selected="false" />
    <inkscape:path-effect
       effect="bspline"
       id="path-effect296"
       is_visible="true"
       lpeversion="1"
       weight="33.333333"
       steps="2"
       helper_size="0"
       apply_no_weight="true"
       apply_with_weight="true"
       only_selected="false" />
    <inkscape:path-effect
       effect="bspline"
       id="path-effect292"
       is_visible="true"
       lpeversion="1"
       weight="33.333333"
       steps="2"
       helper_size="0"
       apply_no_weight="true"
       apply_with_weight="true"
       only_selected="false" />
  </defs>
  <g
     inkscape:label="Layer 1"
     inkscape:groupmode="layer"
     id="layer1"
     transform="translate(27.098276,-99.251454)">
    <g
       inkscape:label=""
       transform="matrix(1.4436879,0,0,1.1180186,70.807317,118.49544)"
       id="g2344"
       style="fill:#6272a4;stroke-width:1.31448;stroke-dasharray:none">
      <g
         fill="#000000"
         fill-opacity="1"
         id="g12"
         transform="matrix(1.41111,0,0,1.41111,-130.488,-109.441)"
         style="fill:#6272a4;stroke-width:0.931525;stroke-dasharray:none">
        <g
           id="use10"
           transform="translate(91.925003,81.962997)"
           style="fill:#6272a4;stroke-width:0.931525;stroke-dasharray:none">
          <path
             d="M 5.0625,-2.703125 C 4.53125,-3.375 4.40625,-3.53125 4.09375,-3.78125 c -0.5625,-0.453125 -1.109375,-0.625 -1.625,-0.625 -1.15625,0 -1.921875,1.09375 -1.921875,2.265625 0,1.140625 0.734375,2.25 1.890625,2.25 1.140625,0 1.96875,-0.90625 2.453125,-1.703125 0.546875,0.671875 0.65625,0.828125 0.96875,1.078125 0.5625,0.453125 1.125,0.625 1.625,0.625 1.171875,0 1.921875,-1.09375 1.921875,-2.265625 0,-1.140625 -0.734375,-2.25 -1.875,-2.25 -1.15625,0 -1.984375,0.90625 -2.46875,1.703125 z m 0.265625,0.34375 c 0.40625,-0.71875 1.140625,-1.734375 2.265625,-1.734375 1.0625,0 1.59375,1.046875 1.59375,1.9375 0,0.984375 -0.671875,1.78125 -1.546875,1.78125 C 7.0625,-0.375 6.625,-0.78125 6.40625,-1 6.15625,-1.265625 5.9375,-1.578125 5.328125,-2.359375 Z m -0.6875,0.421875 c -0.40625,0.71875 -1.15625,1.734375 -2.28125,1.734375 -1.046875,0 -1.59375,-1.046875 -1.59375,-1.9375 0,-0.984375 0.671875,-1.78125 1.546875,-1.78125 0.578125,0 1.03125,0.40625 1.234375,0.625 0.25,0.265625 0.484375,0.578125 1.09375,1.359375 z m 0,0"
             id="path18"
             style="fill:#6272a4;stroke-width:0.931525;stroke-dasharray:none" />
        </g>
      </g>
    </g>
    <path
       sodipodi:type="star"
       style="fill:#ffb86c;stroke:none;stroke-width:0.529167;stroke-linejoin:round;stroke-dasharray:1.5875, 1.5875"
       id="path234"
       inkscape:flatsided="false"
       sodipodi:sides="7"
       sodipodi:cx="88.778984"
       sodipodi:cy="109.67286"
       sodipodi:r1="11.600567"
       sodipodi:r2="5.8002834"
       sodipodi:arg1="0.78539816"
       sodipodi:arg2="1.2341971"
       inkscape:rounded="0"
       inkscape:randomized="0"
       d="m 96.981824,117.8757 -6.287128,-2.72805 -3.214563,6.05283 -1.787086,-6.61638 -6.736544,1.26063 4.058669,-5.52245 -5.18577,-4.48085 6.848162,-0.26999 0.269996,-6.848162 4.48085,5.185772 5.522448,-4.058672 -1.260634,6.736542 6.616386,1.78709 -6.052835,3.21456 z"
       inkscape:transform-center-x="-0.037957881"
       inkscape:transform-center-y="-0.53733695"
       transform="rotate(18.443197,80.658606,82.588942)" />
    <g
       id="g2142">
      <path
         style="fill:none;stroke:#8be9fd;stroke-width:1.05833;stroke-linecap:butt;stroke-linejoin:miter;stroke-dasharray:none;stroke-opacity:1"
         d="m 84.803244,122.65783 c 0.0049,4.57344 0.0098,9.14661 11.066661,11.43307 11.056835,2.28645 33.164445,2.28645 55.272225,2.28645"
         id="path2056"
         inkscape:path-effect="#path-effect2058"
         inkscape:original-d="m 84.803244,122.65783 c 0.0052,4.57344 0.01009,9.14661 0.01474,13.71952 22.108756,2.6e-4 44.216366,2.6e-4 66.324146,0"
         sodipodi:nodetypes="ccc" />
      <path
         style="fill:none;stroke:#8be9fd;stroke-width:1.05833;stroke-linecap:butt;stroke-linejoin:miter;stroke-dasharray:none;stroke-opacity:1"
         d="m 151.14213,136.37735 c 0,-6.05591 0,-12.11208 0,-18.16851"
         id="path2060"
         inkscape:path-effect="#path-effect2062"
         inkscape:original-d="m 151.14213,136.37735 c 2.6e-4,-6.05591 2.6e-4,-12.11208 0,-18.16851" />
      <path
         style="fill:none;stroke:#8be9fd;stroke-width:1.05833;stroke-linecap:butt;stroke-linejoin:miter;stroke-dasharray:none;stroke-opacity:1"
         d="m 151.14213,136.37735 c 6.1993,0 12.39833,0 18.5971,0"
         id="path2064"
         inkscape:path-effect="#path-effect2066"
         inkscape:original-d="m 151.14213,136.37735 c 6.1993,2.6e-4 12.39833,2.6e-4 18.5971,0" />
      <ellipse
         style="fill:#bd93f9;stroke:none;stroke-width:0.529167;stroke-linejoin:round;stroke-dasharray:1.5875, 1.5875"
         id="path470"
         cx="126.69953"
         cy="136.37735"
         rx="1.5699513"
         ry="7.8497562" />
      <ellipse
         style="fill:#bd93f9;stroke:none;stroke-width:0.529167;stroke-linejoin:round;stroke-dasharray:1.5875, 1.5875"
         id="ellipse472"
         cx="135.82794"
         cy="136.37735"
         rx="1.5699513"
         ry="7.8497562" />
      <rect
         style="fill:#ffb86c;stroke:none;stroke-width:0.529167;stroke-linejoin:round;stroke-dasharray:1.5875, 1.5875"
         id="rect526"
         width="6.0159282e-14"
         height="11.739528"
         x="135.60783"
         y="122.65783" />
      <rect
         style="fill:#ff79c6;stroke:#44475a;stroke-width:1.05833;stroke-linejoin:round;stroke-dasharray:none"
         id="rect1207"
         width="15.504911"
         height="15.699512"
         x="143.65099"
         y="128.79218" />
      <path
         style="fill:none;stroke:#44475a;stroke-width:1.05833;stroke-linecap:butt;stroke-linejoin:miter;stroke-dasharray:none;stroke-opacity:1"
         d="m 143.65099,128.79217 c 5.16857,5.23344 10.33687,10.46661 15.50491,15.69951"
         id="path1209"
         inkscape:path-effect="#path-effect1211"
         inkscape:original-d="m 143.65099,128.79217 c 5.16857,5.23344 10.33687,10.46661 15.50491,15.69951" />
      <g
         id="g1816"
         style="stroke:#282a36;stroke-width:2.15955;stroke-linejoin:round;stroke-dasharray:none"
         transform="matrix(0.4900703,0,0,0.4900703,-29.980969,-60.350987)">
        <path
           fill="none"
           stroke="#000000"
           stroke-width="3"
           stroke-miterlimit="10"
           d="m 283.224,104.773 v 30.115 c 8.302,0 15.031,-6.742 15.031,-15.058 0,-8.316 -6.73,-15.057 -15.031,-15.057 z"
           id="path1177"
           style="fill:#ff5555;stroke:#44475a;stroke-width:2.15955;stroke-linejoin:round;stroke-dasharray:none"
           transform="translate(124.30978,282.13819)" />
        <path
           fill="none"
           stroke="#000000"
           stroke-width="2"
           stroke-miterlimit="10"
           d="m 441.18778,401.62819 c 0,-4.547 -5.988,-4.639 -5.988,0.34 0,4.701 -6.162,4.889 -6.162,0 0,-4.951 -6.473,-4.906 -6.473,0"
           id="path1197"
           style="stroke:#44475a;stroke-width:2.15955;stroke-linejoin:round;stroke-dasharray:none" />
      </g>
      <g
         id="g2032"
         style="stroke:#282a36;stroke-width:2.15955;stroke-linejoin:round;stroke-dasharray:none"
         transform="matrix(0,-0.4900703,0.4900703,0,-45.589474,317.92904)">
        <path
           fill="none"
           stroke="#000000"
           stroke-width="3"
           stroke-miterlimit="10"
           d="m 283.224,104.773 v 30.115 c 8.302,0 15.031,-6.742 15.031,-15.058 0,-8.316 -6.73,-15.057 -15.031,-15.057 z"
           id="path2028"
           style="fill:#ff5555;stroke:#44475a;stroke-width:2.15955;stroke-linejoin:round;stroke-dasharray:none"
           transform="translate(124.30978,282.13819)" />
        <path
           fill="none"
           stroke="#000000"
           stroke-width="2"
           stroke-miterlimit="10"
           d="m 441.18778,401.62819 c 0,-4.547 -5.988,-4.639 -5.988,0.34 0,4.701 -6.162,4.889 -6.162,0 0,-4.951 -6.473,-4.906 -6.473,0"
           id="path2030"
           style="stroke:#44475a;stroke-width:2.15955;stroke-linejoin:round;stroke-dasharray:none" />
      </g>
    </g>
    <g
       id="g2126"
       transform="translate(60.084787,-1.4243905)">
      <path
         style="fill:none;stroke:#8be9fd;stroke-width:1.05833;stroke-linecap:butt;stroke-linejoin:miter;stroke-dasharray:none;stroke-opacity:1"
         d="m 14.77492,124.08222 c -0.0049,4.57344 -0.0098,9.14661 -11.0666617,11.43307 -11.0568348,2.28645 -33.1644443,2.28645 -55.2722243,2.28645"
         id="path2068"
         inkscape:path-effect="#path-effect2098"
         inkscape:original-d="m 14.77492,124.08222 c -0.0052,4.57344 -0.01009,9.14661 -0.01474,13.71952 -22.1087565,2.6e-4 -44.216366,2.6e-4 -66.324146,0"
         sodipodi:nodetypes="ccc" />
      <path
         style="fill:none;stroke:#8be9fd;stroke-width:1.05833;stroke-linecap:butt;stroke-linejoin:miter;stroke-dasharray:none;stroke-opacity:1"
         d="m -51.563966,137.80174 c 0,-6.05591 0,-12.11208 0,-18.16851"
         id="path2070"
         inkscape:path-effect="#path-effect2102"
         inkscape:original-d="m -51.563966,137.80174 c -2.6e-4,-6.05591 -2.6e-4,-12.11208 0,-18.16851" />
      <path
         style="fill:none;stroke:#8be9fd;stroke-width:1.05833;stroke-linecap:butt;stroke-linejoin:miter;stroke-dasharray:none;stroke-opacity:1"
         d="m -51.563966,137.80174 c -6.1993,0 -12.39833,0 -18.597095,0"
         id="path2072"
         inkscape:path-effect="#path-effect2106"
         inkscape:original-d="m -51.563966,137.80174 c -6.1993,2.6e-4 -12.39833,2.6e-4 -18.597095,0" />
      <ellipse
         style="fill:#bd93f9;stroke:none;stroke-width:0.529167;stroke-linejoin:round;stroke-dasharray:1.5875, 1.5875"
         id="ellipse2074"
         cx="27.12137"
         cy="137.80174"
         rx="1.5699513"
         ry="7.8497562"
         transform="scale(-1,1)" />
      <ellipse
         style="fill:#bd93f9;stroke:none;stroke-width:0.529167;stroke-linejoin:round;stroke-dasharray:1.5875, 1.5875"
         id="ellipse2076"
         cx="36.249779"
         cy="137.80174"
         rx="1.5699513"
         ry="7.8497562"
         transform="scale(-1,1)" />
      <rect
         style="fill:#ffb86c;stroke:none;stroke-width:0.529167;stroke-linejoin:round;stroke-dasharray:1.5875, 1.5875"
         id="rect2078"
         width="6.0159282e-14"
         height="11.739528"
         x="36.029671"
         y="124.08221"
         transform="scale(-1,1)" />
      <rect
         style="fill:#ff79c6;stroke:#44475a;stroke-width:1.05833;stroke-linejoin:round;stroke-dasharray:none"
         id="rect2080"
         width="15.504911"
         height="15.699512"
         x="44.072823"
         y="130.21657"
         transform="scale(-1,1)" />
      <path
         style="fill:none;stroke:#44475a;stroke-width:1.05833;stroke-linecap:butt;stroke-linejoin:miter;stroke-dasharray:none;stroke-opacity:1"
         d="m -44.072826,130.21656 c -5.16857,5.23344 -10.336872,10.46661 -15.50491,15.69951"
         id="path2082"
         inkscape:path-effect="#path-effect2110"
         inkscape:original-d="m -44.072826,130.21656 c -5.16857,5.23344 -10.33687,10.46661 -15.50491,15.69951" />
      <g
         id="g2088"
         style="stroke:#282a36;stroke-width:2.15955;stroke-linejoin:round;stroke-dasharray:none"
         transform="matrix(-0.4900703,0,0,0.4900703,129.55913,-58.9266)">
        <path
           fill="none"
           stroke="#000000"
           stroke-width="3"
           stroke-miterlimit="10"
           d="m 283.224,104.773 v 30.115 c 8.302,0 15.031,-6.742 15.031,-15.058 0,-8.316 -6.73,-15.057 -15.031,-15.057 z"
           id="path2084"
           style="fill:#ff5555;stroke:#44475a;stroke-width:2.15955;stroke-linejoin:round;stroke-dasharray:none"
           transform="translate(124.30978,282.13819)" />
        <path
           fill="none"
           stroke="#000000"
           stroke-width="2"
           stroke-miterlimit="10"
           d="m 441.18778,401.62819 c 0,-4.547 -5.988,-4.639 -5.988,0.34 0,4.701 -6.162,4.889 -6.162,0 0,-4.951 -6.473,-4.906 -6.473,0"
           id="path2086"
           style="stroke:#44475a;stroke-width:2.15955;stroke-linejoin:round;stroke-dasharray:none" />
      </g>
      <g
         id="g2094"
         style="stroke:#282a36;stroke-width:2.15955;stroke-linejoin:round;stroke-dasharray:none"
         transform="matrix(0,-0.4900703,-0.4900703,0,145.16764,319.35343)">
        <path
           fill="none"
           stroke="#000000"
           stroke-width="3"
           stroke-miterlimit="10"
           d="m 283.224,104.773 v 30.115 c 8.302,0 15.031,-6.742 15.031,-15.058 0,-8.316 -6.73,-15.057 -15.031,-15.057 z"
           id="path2090"
           style="fill:#ff5555;stroke:#44475a;stroke-width:2.15955;stroke-linejoin:round;stroke-dasharray:none"
           transform="translate(124.30978,282.13819)" />
        <path
           fill="none"
           stroke="#000000"
           stroke-width="2"
           stroke-miterlimit="10"
           d="m 441.18778,401.62819 c 0,-4.547 -5.988,-4.639 -5.988,0.34 0,4.701 -6.162,4.889 -6.162,0 0,-4.951 -6.473,-4.906 -6.473,0"
           id="path2092"
           style="stroke:#44475a;stroke-width:2.15955;stroke-linejoin:round;stroke-dasharray:none" />
      </g>
    </g>
  </g>
</svg>
